  0
SECTION
  2
HEADER
  9
$ACADVER
  1
AC1015
  9
$ACADMAINTVER
 70
     6
  9
$DWGCODEPAGE
  3
ANSI_1252
  9
$INSBASE
 10
0.0
 20
0.0
 30
0.0
  9
$EXTMIN
 10
1.000000E+20
 20
1.000000E+20
 30
1.000000E+20
  9
$EXTMAX
 10
-1.000000E+20
 20
-1.000000E+20
 30
-1.000000E+20
  9
$LIMMIN
 10
0.0
 20
0.0
  9
$LIMMAX
 10
420.0
 20
297.0
  9
$ORTHOMODE
 70
     0
  9
$REGENMODE
 70
     1
  9
$FILLMODE
 70
     1
  9
$QTEXTMODE
 70
     0
  9
$MIRRTEXT
 70
     1
  9
$LTSCALE
 40
1.0
  9
$ATTMODE
 70
     1
  9
$TEXTSIZE
 40
2.5
  9
$TRACEWID
 40
1.0
  9
$TEXTSTYLE
  7
Standard
  9
$CLAYER
  8
0
  9
$CELTYPE
  6
ByLayer
  9
$CECOLOR
 62
   256
  9
$CELTSCALE
 40
1.0
  9
$DISPSILH
 70
     0
  9
$DIMSCALE
 40
1.0
  9
$DIMASZ
 40
2.5
  9
$DIMEXO
 40
0.625
  9
$DIMDLI
 40
3.75
  9
$DIMRND
 40
0.0
  9
$DIMDLE
 40
0.0
  9
$DIMEXE
 40
1.25
  9
$DIMTP
 40
0.0
  9
$DIMTM
 40
0.0
  9
$DIMTXT
 40
2.5
  9
$DIMCEN
 40
2.5
  9
$DIMTSZ
 40
0.0
  9
$DIMTOL
 70
     0
  9
$DIMLIM
 70
     0
  9
$DIMTIH
 70
     0
  9
$DIMTOH
 70
     0
  9
$DIMSE1
 70
     0
  9
$DIMSE2
 70
     0
  9
$DIMTAD
 70
     1
  9
$DIMZIN
 70
     8
  9
$DIMBLK
  1

  9
$DIMASO
 70
     1
  9
$DIMSHO
 70
     1
  9
$DIMPOST
  1

  9
$DIMAPOST
  1

  9
$DIMALT
 70
     0
  9
$DIMALTD
 70
     3
  9
$DIMALTF
 40
0.03937
  9
$DIMLFAC
 40
1.0
  9
$DIMTOFL
 70
     1
  9
$DIMTVP
 40
0.0
  9
$DIMTIX
 70
     0
  9
$DIMSOXD
 70
     0
  9
$DIMSAH
 70
     0
  9
$DIMBLK1
  1

  9
$DIMBLK2
  1

  9
$DIMSTYLE
  2
ISO-25
  9
$DIMCLRD
 70
     0
  9
$DIMCLRE
 70
     0
  9
$DIMCLRT
 70
     0
  9
$DIMTFAC
 40
1.0
  9
$DIMGAP
 40
0.625
  9
$DIMJUST
 70
     0
  9
$DIMSD1
 70
     0
  9
$DIMSD2
 70
     0
  9
$DIMTOLJ
 70
     0
  9
$DIMTZIN
 70
     8
  9
$DIMALTZ
 70
     0
  9
$DIMALTTZ
 70
     0
  9
$DIMUPT
 70
     0
  9
$DIMDEC
 70
     2
  9
$DIMTDEC
 70
     2
  9
$DIMALTU
 70
     2
  9
$DIMALTTD
 70
     3
  9
$DIMTXSTY
  7
Standard
  9
$DIMAUNIT
 70
     0
  9
$DIMADEC
 70
     0
  9
$DIMALTRND
 40
0.0
  9
$DIMAZIN
 70
     0
  9
$DIMDSEP
 70
    44
  9
$DIMATFIT
 70
     3
  9
$DIMFRAC
 70
     0
  9
$DIMLDRBLK
  1

  9
$DIMLUNIT
 70
     2
  9
$DIMLWD
 70
    -2
  9
$DIMLWE
 70
    -2
  9
$DIMTMOVE
 70
     0
  9
$LUNITS
 70
     2
  9
$LUPREC
 70
     4
  9
$SKETCHINC
 40
1.0
  9
$FILLETRAD
 40
10.0
  9
$AUNITS
 70
     0
  9
$AUPREC
 70
     0
  9
$MENU
  1
.
  9
$ELEVATION
 40
0.0
  9
$PELEVATION
 40
0.0
  9
$THICKNESS
 40
0.0
  9
$LIMCHECK
 70
     0
  9
$CHAMFERA
 40
10.0
  9
$CHAMFERB
 40
10.0
  9
$CHAMFERC
 40
20.0
  9
$CHAMFERD
 40
0.0
  9
$SKPOLY
 70
     0
  9
$TDCREATE
 40
2454516.408335926
  9
$TDUCREATE
 40
2454516.408335926
  9
$TDUPDATE
 40
2454516.408335938
  9
$TDUUPDATE
 40
2454516.408335938
  9
$TDINDWG
 40
0.0000000116
  9
$TDUSRTIMER
 40
0.0000000116
  9
$USRTIMER
 70
     1
  9
$ANGBASE
 50
0.0
  9
$ANGDIR
 70
     0
  9
$PDMODE
 70
     3
  9
$PDSIZE
 40
-0.7
  9
$PLINEWID
 40
0.0
  9
$SPLFRAME
 70
     0
  9
$SPLINETYPE
 70
     6
  9
$SPLINESEGS
 70
     8
  9
$HANDSEED
  5
38
  9
$SURFTAB1
 70
     6
  9
$SURFTAB2
 70
     6
  9
$SURFTYPE
 70
     6
  9
$SURFU
 70
     6
  9
$SURFV
 70
     6
  9
$UCSBASE
  2

  9
$UCSNAME
  2

  9
$UCSORG
 10
0.0
 20
0.0
 30
0.0
  9
$UCSXDIR
 10
1.0
 20
0.0
 30
0.0
  9
$UCSYDIR
 10
0.0
 20
1.0
 30
0.0
  9
$UCSORTHOREF
  2

  9
$UCSORTHOVIEW
 70
     0
  9
$UCSORGTOP
 10
0.0
 20
0.0
 30
0.0
  9
$UCSORGBOTTOM
 10
0.0
 20
0.0
 30
0.0
  9
$UCSORGLEFT
 10
0.0
 20
0.0
 30
0.0
  9
$UCSORGRIGHT
 10
0.0
 20
0.0
 30
0.0
  9
$UCSORGFRONT
 10
0.0
 20
0.0
 30
0.0
  9
$UCSORGBACK
 10
0.0
 20
0.0
 30
0.0
  9
$PUCSBASE
  2

  9
$PUCSNAME
  2

  9
$PUCSORG
 10
0.0
 20
0.0
 30
0.0
  9
$PUCSXDIR
 10
1.0
 20
0.0
 30
0.0
  9
$PUCSYDIR
 10
0.0
 20
1.0
 30
0.0
  9
$PUCSORTHOREF
  2

  9
$PUCSORTHOVIEW
 70
     0
  9
$PUCSORGTOP
 10
0.0
 20
0.0
 30
0.0
  9
$PUCSORGBOTTOM
 10
0.0
 20
0.0
 30
0.0
  9
$PUCSORGLEFT
 10
0.0
 20
0.0
 30
0.0
  9
$PUCSORGRIGHT
 10
0.0
 20
0.0
 30
0.0
  9
$PUCSORGFRONT
 10
0.0
 20
0.0
 30
0.0
  9
$PUCSORGBACK
 10
0.0
 20
0.0
 30
0.0
  9
$USERI1
 70
     0
  9
$USERI2
 70
     0
  9
$USERI3
 70
     0
  9
$USERI4
 70
     0
  9
$USERI5
 70
     0
  9
$USERR1
 40
0.0
  9
$USERR2
 40
0.0
  9
$USERR3
 40
0.0
  9
$USERR4
 40
0.0
  9
$USERR5
 40
0.0
  9
$WORLDVIEW
 70
     1
  9
$SHADEDGE
 70
     3
  9
$SHADEDIF
 70
    70
  9
$TILEMODE
 70
     1
  9
$MAXACTVP
 70
    64
  9
$PINSBASE
 10
0.0
 20
0.0
 30
0.0
  9
$PLIMCHECK
 70
     0
  9
$PEXTMIN
 10
1.000000E+20
 20
1.000000E+20
 30
1.000000E+20
  9
$PEXTMAX
 10
-1.000000E+20
 20
-1.000000E+20
 30
-1.000000E+20
  9
$PLIMMIN
 10
0.0
 20
0.0
  9
$PLIMMAX
 10
420.0
 20
297.0
  9
$UNITMODE
 70
     0
  9
$VISRETAIN
 70
     1
  9
$PLINEGEN
 70
     0
  9
$PSLTSCALE
 70
     1
  9
$TREEDEPTH
 70
  3020
  9
$CMLSTYLE
  2
Standard
  9
$CMLJUST
 70
     1
  9
$CMLSCALE
 40
1.0
  9
$PROXYGRAPHICS
 70
     1
  9
$MEASUREMENT
 70
     1
  9
$CELWEIGHT
370
    -1
  9
$ENDCAPS
280
     0
  9
$JOINSTYLE
280
     0
  9
$LWDISPLAY
290
     0
  9
$INSUNITS
 70
     4
  9
$HYPERLINKBASE
  1

  9
$STYLESHEET
  1

  9
$XEDIT
290
     1
  9
$CEPSNTYPE
380
     0
  9
$PSTYLEMODE
290
     1
  9
$FINGERPRINTGUID
  2
{FAEB1C30-E019-11D5-929B-00C0DF256EC4}
  9
$VERSIONGUID
  2
{FAEB1C32-E019-11D5-929B-00C0DF256EC4}
  9
$EXTNAMES
290
     1
  9
$PSVPSCALE
 40
0.0
  9
$OLESTARTUP
290
     0
  0
ENDSEC
  0
SECTION
  2
CLASSES
  0
CLASS
  1
ACDBDICTIONARYWDFLT
  2
AcDbDictionaryWithDefault
  3
ObjectDBX Classes
 90
        0
280
     0
281
     0
  0
CLASS
  1
ACDBPLACEHOLDER
  2
AcDbPlaceHolder
  3
ObjectDBX Classes
 90
        0
280
     0
281
     0
  0
CLASS
  1
LAYOUT
  2
AcDbLayout
  3
ObjectDBX Classes
 90
        0
280
     0
281
     0
  0
ENDSEC
  0
SECTION
  2
TABLES
  0
TABLE
  2
VPORT
  5
8
330
0
100
AcDbSymbolTable
 70
     2
  0
VPORT
  5
29
330
8
100
AcDbSymbolTableRecord
100
AcDbViewportTableRecord
  2
*Active
 70
     0
 10
0.0
 20
0.0
 11
1.0
 21
1.0
 12
50.0
 22
50.0
 13
0.0
 23
0.0
 14
10.0
 24
10.0
 15
10.0
 25
10.0
 16
0.0
 26
0.0
 36
1.0
 17
0.0
 27
0.0
 37
0.0
 40
103.921569
 41
1.0
 42
50.0
 43
0.0
 44
0.0
 50
0.0
 51
0.0
 71
     0
 72
   100
 73
     1
 74
     3
 75
     0
 76
     0
 77
     0
 78
     0
281
     0
 65
     1
110
0.0
120
0.0
130
0.0
111
1.0
121
0.0
131
0.0
112
0.0
122
1.0
132
0.0
 79
     0
146
0.0
  0
ENDTAB
  0
TABLE
  2
LTYPE
  5
5
330
0
100
AcDbSymbolTable
 70
     1
  0
LTYPE
  5
14
330
5
100
AcDbSymbolTableRecord
100
AcDbLinetypeTableRecord
  2
ByBlock
 70
     0
  3

 72
    65
 73
     0
 40
0.0
  0
LTYPE
  5
15
330
5
100
AcDbSymbolTableRecord
100
AcDbLinetypeTableRecord
  2
ByLayer
 70
     0
  3

 72
    65
 73
     0
 40
0.0
  0
LTYPE
  5
16
330
5
100
AcDbSymbolTableRecord
100
AcDbLinetypeTableRecord
  2
Continuous
 70
     0
  3

 72
    65
 73
     0
 40
0.0
  0
ENDTAB
  0
TABLE
  2
LAYER
  5
2
330
0
100
AcDbSymbolTable
 70
     1
  0
LAYER
  5
10
330
2
100
AcDbSymbolTableRecord
100
AcDbLayerTableRecord
  2
0
 70
     0
 62
     7
  6
Continuous
370
    -3
390
F
  0
ENDTAB
  0
TABLE
  2
STYLE
  5
3
330
0
100
AcDbSymbolTable
 70
     1
  0
STYLE
  5
11
330
3
100
AcDbSymbolTableRecord
100
AcDbTextStyleTableRecord
  2
Standard
 70
     0
 40
1.0
 41
1.0
 50
0.0
 71
     0
 42
2.5
  3
RomanS
  4

  0
ENDTAB
  0
TABLE
  2
VIEW
  5
6
330
0
100
AcDbSymbolTable
 70
     0
  0
ENDTAB
  0
TABLE
  2
UCS
  5
7
330
0
100
AcDbSymbolTable
 70
     0
  0
ENDTAB
  0
TABLE
  2
APPID
  5
9
330
0
100
AcDbSymbolTable
 70
     1
  0
APPID
  5
12
330
9
100
AcDbSymbolTableRecord
100
AcDbRegAppTableRecord
  2
ACAD
 70
     0
  0
ENDTAB
  0
TABLE
  2
DIMSTYLE
  5
A
330
0
100
AcDbSymbolTable
 70
     1
100
AcDbDimStyleTable
  0
DIMSTYLE
105
27
330
A
100
AcDbSymbolTableRecord
100
AcDbDimStyleTableRecord
  2
ISO-25
 70
     0
 41
2.5
 42
0.625
 44
1.25
 73
     0
 74
     0
 77
     1
 78
     8
 79
     2
140
2.5
141
2.5
146
0.0
147
0.625
271
     2
272
     0
273
     0
274
     0
278
    44
283
     0
289
     0
340
11
  0
ENDTAB
  0
TABLE
  2
BLOCK_RECORD
  5
1
330
0
100
AcDbSymbolTable
 70
     1
  0
BLOCK_RECORD
  5
1F
330
1
100
AcDbSymbolTableRecord
100
AcDbBlockTableRecord
  2
*Model_Space
340
22
  0
BLOCK_RECORD
  5
1B
330
1
100
AcDbSymbolTableRecord
100
AcDbBlockTableRecord
  2
*Paper_Space
340
1E
  0
BLOCK_RECORD
  5
23
330
1
100
AcDbSymbolTableRecord
100
AcDbBlockTableRecord
  2
*Paper_Space0
340
26
  0
ENDTAB
  0
ENDSEC
  0
SECTION
  2
BLOCKS
  0
BLOCK
  5
20
330
1F
100
AcDbEntity
  8
0
100
AcDbBlockBegin
  2
*Model_Space
 70
     0
 71
     0
 10
0.0
 20
0.0
 30
0.0
  3
*Model_Space
  1

  0
ENDBLK
  5
21
330
1F
100
AcDbEntity
  8
0
100
AcDbBlockEnd
  0
BLOCK
  5
1C
330
1B
100
AcDbEntity
 67
     1
  8
0
100
AcDbBlockBegin
  2
*Paper_Space
 70
     0
 71
     0
 10
0.0
 20
0.0
 30
0.0
  3
*Paper_Space
  1

  0
ENDBLK
  5
1D
330
1B
100
AcDbEntity
 67
     1
  8
0
100
AcDbBlockEnd
  0
BLOCK
  5
24
330
23
100
AcDbEntity
  8
0
100
AcDbBlockBegin
  2
*Paper_Space0
 70
     0
 71
     0
 10
0.0
 20
0.0
 30
0.0
  3
*Paper_Space0
  1

  0
ENDBLK
  5
25
330
23
100
AcDbEntity
  8
0
100
AcDbBlockEnd
  0
ENDSEC
  0
SECTION
  2
ENTITIES
  0
LWPOLYLINE
  5
2A
330
1F
100
AcDbEntity
  8
0
100
AcDbPolyline
 90
        5
 70
   128
 43
0.0
 10
0.528582
 20
0.716912
 42
-0.414214
 10
0.703968
 20
0.772045
 42
-0.414214
 10
0.759101
 20
0.596658
 42
-0.414214
 10
0.583715
 20
0.541525
 42
-0.414214
 10
0.528582
 20
0.716912
  0
LWPOLYLINE
  5
2B
330
1F
100
AcDbEntity
  8
0
100
AcDbPolyline
 90
        5
 70
   128
 43
0.0
 10
3.88
 20
3.25
 42
-0.414214
 10
3.75
 20
3.12
 42
-0.414214
 10
3.62
 20
3.25
 42
-0.414214
 10
3.75
 20
3.38
 42
-0.414214
 10
3.88
 20
3.25
  0
LWPOLYLINE
  5
2C
330
1F
100
AcDbEntity
  8
0
100
AcDbPolyline
 90
        9
 70
   128
 43
0.0
 10
4.12351
 20
3.367277
 42
0.36397
 10
4.094396
 20
3.324889
 10
4.102362
 20
3.242401
 42
0.36397
 10
4.13905
 20
3.206369
 10
6.379312
 20
3.030697
 42
0.466308
 10
6.422254
 20
3.07442
 10
6.339266
 20
3.933717
 42
0.466308
 10
6.288751
 20
3.968414
 10
4.12351
 20
3.367277
  0
LWPOLYLINE
  5
2D
330
1F
100
AcDbEntity
  8
0
100
AcDbPolyline
 90
        9
 70
   128
 43
0.0
 10
4.12111
 20
3.125335
 42
0.36397
 10
4.072641
 20
3.108156
 10
4.030601
 20
3.036739
 42
0.36397
 10
4.039102
 20
2.986024
 10
5.748255
 20
1.52711
 42
0.466308
 10
5.808695
 20
1.537241
 10
6.246639
 20
2.281206
 42
0.466308
 10
6.226166
 20
2.338969
 10
4.12111
 20
3.125335
  0
LWPOLYLINE
  5
2E
330
1F
100
AcDbEntity
  8
0
100
AcDbPolyline
 90
        9
 70
   128
 43
0.0
 10
3.976958
 20
2.931011
 42
0.36397
 10
3.927648
 20
2.945602
 10
3.851659
 20
2.912535
 42
0.36397
 10
3.828727
 20
2.866509
 10
4.353933
 20
0.681607
 42
0.466308
 10
4.408785
 20
0.654278
 10
5.200381
 20
0.998742
 42
0.466308
 10
5.21777
 20
1.057507
 10
3.976958
 20
2.931011
  0
LWPOLYLINE
  5
2F
330
1F
100
AcDbEntity
  8
0
100
AcDbPolyline
 90
        9
 70
   128
 43
0.0
 10
3.746116
 20
2.85853
 42
0.36397
 10
3.7148
 20
2.899318
 10
3.633887
 20
2.917232
 42
0.36397
 10
3.588281
 20
2.893474
 10
2.728929
 20
0.817144
 42
0.466308
 10
2.757242
 20
0.762793
 10
3.600127
 20
0.576181
 42
0.466308
 10
3.648735
 20
0.613502
 10
3.746116
 20
2.85853
  0
LWPOLYLINE
  5
30
330
1F
100
AcDbEntity
  8
0
100
AcDbPolyline
 90
        9
 70
   128
 43
0.0
 10
3.516757
 20
2.935577
 42
0.36397
 10
3.515397
 20
2.986982
 10
3.460466
 20
3.049034
 42
0.36397
 10
3.409606
 20
3.056621
 10
1.493939
 20
1.881949
 42
0.466308
 10
1.484898
 20
1.821336
 10
2.057119
 20
1.174929
 42
0.466308
 10
2.118381
 20
1.17655
 10
3.516757
 20
2.935577
  0
LWPOLYLINE
  5
31
330
1F
100
AcDbEntity
  8
0
100
AcDbPolyline
 90
        9
 70
   128
 43
0.0
 10
3.37649
 20
3.132723
 42
0.36397
 10
3.405604
 20
3.175111
 10
3.397638
 20
3.257599
 42
0.36397
 10
3.36095
 20
3.293631
 10
1.120688
 20
3.469303
 42
0.466308
 10
1.077746
 20
3.42558
 10
1.160734
 20
2.566283
 42
0.466308
 10
1.211249
 20
2.531586
 10
3.37649
 20
3.132723
  0
LWPOLYLINE
  5
32
330
1F
100
AcDbEntity
  8
0
100
AcDbPolyline
 90
        9
 70
   128
 43
0.0
 10
3.37889
 20
3.374665
 42
0.36397
 10
3.427359
 20
3.391844
 10
3.469399
 20
3.463261
 42
0.36397
 10
3.460898
 20
3.513976
 10
1.751745
 20
4.97289
 42
0.466308
 10
1.691305
 20
4.962759
 10
1.253361
 20
4.218794
 42
0.466308
 10
1.273834
 20
4.161031
 10
3.37889
 20
3.374665
  0
LWPOLYLINE
  5
33
330
1F
100
AcDbEntity
  8
0
100
AcDbPolyline
 90
        9
 70
   128
 43
0.0
 10
3.523042
 20
3.568989
 42
0.36397
 10
3.572352
 20
3.554398
 10
3.648341
 20
3.587465
 42
0.36397
 10
3.671273
 20
3.633491
 10
3.146067
 20
5.818393
 42
0.466308
 10
3.091215
 20
5.845722
 10
2.299619
 20
5.501258
 42
0.466308
 10
2.28223
 20
5.442493
 10
3.523042
 20
3.568989
  0
LWPOLYLINE
  5
34
330
1F
100
AcDbEntity
  8
0
100
AcDbPolyline
 90
        9
 70
   128
 43
0.0
 10
3.753884
 20
3.64147
 42
0.36397
 10
3.7852
 20
3.600682
 10
3.866113
 20
3.582768
 42
0.36397
 10
3.911719
 20
3.606526
 10
4.771071
 20
5.682856
 42
0.466308
 10
4.742758
 20
5.737207
 10
3.899873
 20
5.923819
 42
0.466308
 10
3.851265
 20
5.886498
 10
3.753884
 20
3.64147
  0
LWPOLYLINE
  5
35
330
1F
100
AcDbEntity
  8
0
100
AcDbPolyline
 90
        9
 70
   128
 43
0.0
 10
3.983243
 20
3.564423
 42
0.36397
 10
3.984603
 20
3.513018
 10
4.039534
 20
3.450966
 42
0.36397
 10
4.090394
 20
3.443379
 10
6.006061
 20
4.618051
 42
0.466308
 10
6.015102
 20
4.678664
 10
5.442881
 20
5.325071
 42
0.466308
 10
5.381619
 20
5.32345
 10
3.983243
 20
3.564423
  0
LWPOLYLINE
  5
36
330
1F
100
AcDbEntity
  8
0
100
AcDbPolyline
 90
       57
 70
   128
 43
0.0
 10
1.08436
 20
0.811809
 42
-0.412125
 10
1.038029
 20
0.724725
 10
0.93044
 20
0.706182
 42
0.351181
 10
0.876559
 20
0.645324
 42
-0.002556
 10
0.87643
 20
0.642945
 42
0.351181
 10
0.923394
 20
0.576604
 10
1.028338
 20
0.546504
 42
-0.412125
 10
1.064953
 20
0.45491
 42
-0.412125
 10
0.970615
 20
0.426093
 10
0.881426
 20
0.489058
 42
0.351181
 10
0.800293
 20
0.484124
 42
-0.002556
 10
0.79852
 20
0.482534
 42
0.351181
 10
0.784818
 20
0.402414
 10
0.837741
 20
0.306924
 42
-0.412125
 10
0.798865
 20
0.216266
 42
-0.412125
 10
0.711782
 20
0.262597
 10
0.693238
 20
0.370186
 42
0.351181
 10
0.63238
 20
0.424067
 42
-0.002556
 10
0.630002
 20
0.424196
 42
0.351181
 10
0.56366
 20
0.377232
 10
0.53356
 20
0.272288
 42
-0.412125
 10
0.441966
 20
0.235673
 42
-0.412125
 10
0.41315
 20
0.330011
 10
0.476114
 20
0.4192
 42
0.351181
 10
0.471181
 20
0.500333
 42
-0.002556
 10
0.46959
 20
0.502106
 42
0.351181
 10
0.389471
 20
0.515808
 10
0.29398
 20
0.462885
 42
-0.412125
 10
0.203323
 20
0.501761
 42
-0.412125
 10
0.249653
 20
0.588845
 10
0.357242
 20
0.607388
 42
0.351181
 10
0.411123
 20
0.668246
 42
-0.002556
 10
0.411253
 20
0.670625
 42
0.351181
 10
0.364288
 20
0.736966
 10
0.259344
 20
0.767066
 42
-0.412125
 10
0.222729
 20
0.85866
 42
-0.412125
 10
0.317067
 20
0.887477
 10
0.406256
 20
0.824512
 42
0.351181
 10
0.487389
 20
0.829446
 42
-0.002556
 10
0.489163
 20
0.831036
 42
0.351181
 10
0.502864
 20
0.911156
 10
0.449942
 20
1.006646
 42
-0.412125
 10
0.488817
 20
1.097303
 42
-0.412125
 10
0.575901
 20
1.050973
 10
0.594444
 20
0.943384
 42
0.351181
 10
0.655303
 20
0.889503
 42
-0.002556
 10
0.657681
 20
0.889374
 42
0.351181
 10
0.724023
 20
0.936338
 10
0.754123
 20
1.041282
 42
-0.412125
 10
0.845716
 20
1.077897
 42
-0.412125
 10
0.874533
 20
0.983559
 10
0.811569
 20
0.89437
 42
0.351181
 10
0.816502
 20
0.813237
 42
-0.002556
 10
0.818092
 20
0.811464
 42
0.351181
 10
0.898212
 20
0.797762
 10
0.993703
 20
0.850685
 42
-0.412125
 10
1.08436
 20
0.811809
  0
LWPOLYLINE
  5
37
330
1F
100
AcDbEntity
  8
0
100
AcDbPolyline
 90
      601
 70
   128
 43
0.0
 10
1.536357
 20
1.042471
 42
0.160447
 10
1.663854
 20
1.089148
 42
0.033513
 10
1.668816
 20
1.093644
 10
1.741245
 20
1.168689
 42
-0.40916
 10
1.811318
 20
1.170538
 42
0.004448
 10
1.848621
 20
1.136376
 42
-0.40916
 10
1.852926
 20
1.066412
 10
1.784523
 20
0.987678
 42
0.033513
 10
1.78048
 20
0.982341
 42
0.160447
 10
1.745167
 20
0.851241
 42
0.438565
 10
1.779233
 20
0.823175
 42
0.160447
 10
1.901153
 20
0.882924
 42
0.033513
 10
1.905617
 20
0.887913
 10
1.969806
 20
0.970119
 42
-0.40916
 10
2.039301
 20
0.979282
 42
0.004448
 10
2.07997
 20
0.949207
 42
-0.40916
 10
2.091565
 20
0.880075
 10
2.031767
 20
0.794623
 42
0.033513
 10
2.028304
 20
0.788893
 42
0.160447
 10
2.006888
 20
0.654819
 42
0.438565
 10
2.043702
 20
0.630468
 42
0.160447
 10
2.158708
 20
0.702634
 42
0.033513
 10
2.162626
 20
0.708063
 10
2.21787
 20
0.796527
 42
-0.40916
 10
2.286027
 20
0.812905
 42
0.004448
 10
2.329617
 20
0.787245
 42
-0.40916
 10
2.348375
 20
0.719704
 10
2.297837
 20
0.628469
 42
0.033513
 10
2.294992
 20
0.622409
 42
0.160447
 10
2.287708
 20
0.486831
 42
0.438565
 10
2.326865
 20
0.466462
 42
0.160447
 10
2.433697
 20
0.550253
 42
0.033513
 10
2.437027
 20
0.556062
 10
2.482721
 20
0.649817
 42
-0.40916
 10
2.548793
 20
0.673229
 42
0.004448
 10
2.594826
 20
0.652266
 42
-0.40916
 10
2.620541
 20
0.587056
 10
2.579816
 20
0.491038
 42
0.033513
 10
2.577621
 20
0.484713
 42
0.160447
 10
2.584548
 20
0.349117
 42
0.438565
 10
2.62562
 20
0.332952
 42
0.160447
 10
2.723109
 20
0.427452
 42
0.033513
 10
2.725813
 20
0.433576
 10
2.761457
 20
0.531594
 42
-0.40916
 10
2.824719
 20
0.561784
 42
0.004448
 10
2.872692
 20
0.545748
 42
-0.40916
 10
2.905082
 20
0.483583
 10
2.874617
 20
0.383834
 42
0.033513
 10
2.873094
 20
0.377315
 42
0.160447
 10
2.894157
 20
0.243186
 42
0.438565
 10
2.936694
 20
0.231402
 42
0.160447
 10
3.023771
 20
0.335575
 42
0.033513
 10
3.02582
 20
0.341948
 10
3.051023
 20
0.443155
 42
-0.40916
 10
3.110783
 20
0.479792
 42
0.004448
 10
3.160169
 20
0.468858
 42
-0.40916
 10
3.19888
 20
0.41042
 10
3.179008
 20
0.308033
 42
0.033513
 10
3.178175
 20
0.30139
 42
0.160447
 10
3.213143
 20
0.170197
 42
0.438565
 10
3.256678
 20
0.162925
 42
0.160447
 10
3.33239
 20
0.275629
 42
0.033513
 10
3.333761
 20
0.282182
 10
3.348247
 20
0.385468
 42
-0.40916
 10
3.40385
 20
0.428151
 42
0.004448
 10
3.454109
 20
0.42244
 42
-0.40916
 10
3.498716
 20
0.368368
 10
3.489655
 20
0.264465
 42
0.033513
 10
3.489522
 20
0.257771
 42
0.160447
 10
3.538011
 20
0.130952
 42
0.438565
 10
3.582068
 20
0.12827
 42
0.160447
 10
3.645584
 20
0.24827
 42
0.033513
 10
3.646263
 20
0.254931
 10
3.649873
 20
0.359166
 42
-0.40916
 10
3.70071
 20
0.407427
 42
0.004448
 10
3.75129
 20
0.407
 42
-0.40916
 10
3.801305
 20
0.357887
 10
3.803155
 20
0.253606
 42
0.033513
 10
3.803722
 20
0.246935
 42
0.160447
 10
3.865202
 20
0.12588
 42
0.438565
 10
3.909298
 20
0.127817
 42
0.160447
 10
3.959922
 20
0.2538
 42
0.033513
 10
3.959901
 20
0.260495
 10
3.952596
 20
0.364536
 42
-0.40916
 10
3.99811
 20
0.417847
 42
0.004448
 10
4.048457
 20
0.422709
 42
-0.40916
 10
4.103332
 20
0.379093
 10
4.116072
 20
0.275577
 42
0.033513
 10
4.117333
 20
0.269002
 42
0.160447
 10
4.19113
 20
0.155036
 42
0.438565
 10
4.234782
 20
0.161572
 42
0.160447
 10
4.27196
 20
0.292156
 42
0.033513
 10
4.27124
 20
0.298812
 10
4.253099
 20
0.40152
 42
-0.40916
 10
4.292791
 20
0.459296
 42
0.004448
 10
4.342355
 20
0.469395
 42
-0.40916
 10
4.401488
 20
0.431754
 10
4.424979
 20
0.330136
 42
0.033513
 10
4.42692
 20
0.323729
 42
0.160447
 10
4.512226
 20
0.218101
 42
0.438565
 10
4.554955
 20
0.229164
 42
0.160447
 10
4.57828
 20
0.362919
 42
0.033513
 10
4.576867
 20
0.369463
 10
4.548091
 20
0.469712
 42
-0.40916
 10
4.581526
 20
0.531321
 42
0.004448
 10
4.629762
 20
0.546545
 42
-0.40916
 10
4.692506
 20
0.515291
 10
4.72649
 20
0.416686
 42
0.033513
 10
4.72909
 20
0.410517
 42
0.160447
 10
4.82497
 20
0.314384
 42
0.438565
 10
4.866309
 20
0.329854
 42
0.160447
 10
4.875524
 20
0.465313
 42
0.033513
 10
4.873436
 20
0.471675
 10
4.834338
 20
0.568366
 42
-0.40916
 10
4.86115
 20
0.633133
 42
0.004448
 10
4.907531
 20
0.653315
 42
-0.40916
 10
4.973198
 20
0.628791
 10
5.017303
 20
0.534278
 42
0.033513
 10
5.020534
 20
0.528414
 42
0.160447
 10
5.125937
 20
0.442831
 42
0.438565
 10
5.165432
 20
0.462536
 42
0.160447
 10
5.160438
 20
0.598218
 42
0.033513
 10
5.157696
 20
0.604325
 10
5.108705
 20
0.696401
 42
-0.40916
 10
5.1286
 20
0.763615
 42
0.004448
 10
5.172617
 20
0.788535
 42
-0.40916
 10
5.240488
 20
0.771009
 10
5.29423
 20
0.681624
 42
0.033513
 10
5.298057
 20
0.67613
 42
0.160447
 10
5.411828
 20
0.602033
 42
0.438565
 10
5.449047
 20
0.625759
 42
0.160447
 10
5.429898
 20
0.760175
 42
0.033513
 10
5.426532
 20
0.765963
 10
5.368186
 20
0.852413
 42
-0.40916
 10
5.380946
 20
0.921339
 42
0.004448
 10
5.422117
 20
0.950723
 42
-0.40916
 10
5.491448
 20
0.940388
 10
5.554239
 20
0.85711
 42
0.033513
 10
5.558619
 20
0.852046
 42
0.160447
 10
5.679512
 20
0.790248
 42
0.438565
 10
5.714047
 20
0.817734
 42
0.160447
 10
5.680953
 20
0.949412
 42
0.033513
 10
5.677001
 20
0.954816
 10
5.609937
 20
1.034693
 42
-0.40916
 10
5.615423
 20
1.104575
 42
0.004448
 10
5.653297
 20
1.138103
 42
-0.40916
 10
5.723328
 20
1.135071
 10
5.794481
 20
1.058813
 42
0.033513
 10
5.799365
 20
1.054235
 42
0.160447
 10
5.926056
 20
1.005411
 42
0.438565
 10
5.957529
 20
1.036357
 42
0.160447
 10
5.910852
 20
1.163854
 42
0.033513
 10
5.906356
 20
1.168816
 10
5.831311
 20
1.241245
 42
-0.40916
 10
5.829462
 20
1.311318
 42
0.004448
 10
5.863624
 20
1.348621
 42
-0.40916
 10
5.933588
 20
1.352926
 10
6.012322
 20
1.284523
 42
0.033513
 10
6.017659
 20
1.28048
 42
0.160447
 10
6.148759
 20
1.245167
 42
0.438565
 10
6.176825
 20
1.279233
 42
0.160447
 10
6.117076
 20
1.401153
 42
0.033513
 10
6.112087
 20
1.405617
 10
6.029881
 20
1.469806
 42
-0.40916
 10
6.020718
 20
1.539301
 42
0.004448
 10
6.050793
 20
1.57997
 42
-0.40916
 10
6.119925
 20
1.591565
 10
6.205377
 20
1.531767
 42
0.033513
 10
6.211107
 20
1.528304
 42
0.160447
 10
6.345181
 20
1.506888
 42
0.438565
 10
6.369532
 20
1.543702
 42
0.160447
 10
6.297366
 20
1.658708
 42
0.033513
 10
6.291937
 20
1.662626
 10
6.203473
 20
1.71787
 42
-0.40916
 10
6.187095
 20
1.786027
 42
0.004448
 10
6.212755
 20
1.829617
 42
-0.40916
 10
6.280296
 20
1.848375
 10
6.371531
 20
1.797837
 42
0.033513
 10
6.377591
 20
1.794992
 42
0.160447
 10
6.513169
 20
1.787708
 42
0.438565
 10
6.533538
 20
1.826865
 42
0.160447
 10
6.449747
 20
1.933697
 42
0.033513
 10
6.443938
 20
1.937027
 10
6.350183
 20
1.982721
 42
-0.40916
 10
6.326771
 20
2.048793
 42
0.004448
 10
6.347734
 20
2.094826
 42
-0.40916
 10
6.412944
 20
2.120541
 10
6.508962
 20
2.079816
 42
0.033513
 10
6.515287
 20
2.077621
 42
0.160447
 10
6.650883
 20
2.084548
 42
0.438565
 10
6.667048
 20
2.12562
 42
0.160447
 10
6.572548
 20
2.223109
 42
0.033513
 10
6.566424
 20
2.225813
 10
6.468406
 20
2.261457
 42
-0.40916
 10
6.438216
 20
2.324719
 42
0.004448
 10
6.454252
 20
2.372692
 42
-0.40916
 10
6.516417
 20
2.405082
 10
6.616166
 20
2.374617
 42
0.033513
 10
6.622685
 20
2.373094
 42
0.160447
 10
6.756814
 20
2.394157
 42
0.438565
 10
6.768598
 20
2.436694
 42
0.160447
 10
6.664425
 20
2.523771
 42
0.033513
 10
6.658052
 20
2.52582
 10
6.556845
 20
2.551023
 42
-0.40916
 10
6.520208
 20
2.610783
 42
0.004448
 10
6.531142
 20
2.660169
 42
-0.40916
 10
6.58958
 20
2.69888
 10
6.691967
 20
2.679008
 42
0.033513
 10
6.69861
 20
2.678175
 42
0.160447
 10
6.829803
 20
2.713143
 42
0.438565
 10
6.837075
 20
2.756678
 42
0.160447
 10
6.724371
 20
2.83239
 42
0.033513
 10
6.717818
 20
2.833761
 10
6.614532
 20
2.848247
 42
-0.40916
 10
6.571849
 20
2.90385
 42
0.004448
 10
6.57756
 20
2.954109
 42
-0.40916
 10
6.631632
 20
2.998716
 10
6.735535
 20
2.989655
 42
0.033513
 10
6.742229
 20
2.989522
 42
0.160447
 10
6.869048
 20
3.038011
 42
0.438565
 10
6.87173
 20
3.082068
 42
0.160447
 10
6.75173
 20
3.145584
 42
0.033513
 10
6.745069
 20
3.146263
 10
6.640834
 20
3.149873
 42
-0.40916
 10
6.592573
 20
3.20071
 42
0.004448
 10
6.593
 20
3.25129
 42
-0.40916
 10
6.642113
 20
3.301305
 10
6.746394
 20
3.303155
 42
0.033513
 10
6.753065
 20
3.303722
 42
0.160447
 10
6.87412
 20
3.365202
 42
0.438565
 10
6.872183
 20
3.409298
 42
0.160447
 10
6.7462
 20
3.459922
 42
0.033513
 10
6.739505
 20
3.459901
 10
6.635464
 20
3.452596
 42
-0.40916
 10
6.582153
 20
3.49811
 42
0.004448
 10
6.577291
 20
3.548457
 42
-0.40916
 10
6.620907
 20
3.603332
 10
6.724423
 20
3.616072
 42
0.033513
 10
6.730998
 20
3.617333
 42
0.160447
 10
6.844964
 20
3.69113
 42
0.438565
 10
6.838428
 20
3.734782
 42
0.160447
 10
6.707844
 20
3.77196
 42
0.033513
 10
6.701188
 20
3.77124
 10
6.59848
 20
3.753099
 42
-0.40916
 10
6.540704
 20
3.792791
 42
0.004448
 10
6.530605
 20
3.842355
 42
-0.40916
 10
6.568246
 20
3.901488
 10
6.669864
 20
3.924979
 42
0.033513
 10
6.676271
 20
3.92692
 42
0.160447
 10
6.781899
 20
4.012226
 42
0.438565
 10
6.770836
 20
4.054955
 42
0.160447
 10
6.637081
 20
4.07828
 42
0.033513
 10
6.630537
 20
4.076867
 10
6.530288
 20
4.048091
 42
-0.40916
 10
6.468679
 20
4.081526
 42
0.004448
 10
6.453455
 20
4.129762
 42
-0.40916
 10
6.484709
 20
4.192506
 10
6.583314
 20
4.22649
 42
0.033513
 10
6.589483
 20
4.22909
 42
0.160447
 10
6.685616
 20
4.32497
 42
0.438565
 10
6.670146
 20
4.366309
 42
0.160447
 10
6.534687
 20
4.375524
 42
0.033513
 10
6.528325
 20
4.373436
 10
6.431634
 20
4.334338
 42
-0.40916
 10
6.366867
 20
4.36115
 42
0.004448
 10
6.346685
 20
4.407531
 42
-0.40916
 10
6.371209
 20
4.473198
 10
6.465722
 20
4.517303
 42
0.033513
 10
6.471586
 20
4.520534
 42
0.160447
 10
6.557169
 20
4.625937
 42
0.438565
 10
6.537464
 20
4.665432
 42
0.160447
 10
6.401782
 20
4.660438
 42
0.033513
 10
6.395675
 20
4.657696
 10
6.303599
 20
4.608705
 42
-0.40916
 10
6.236385
 20
4.6286
 42
0.004448
 10
6.211465
 20
4.672617
 42
-0.40916
 10
6.228991
 20
4.740488
 10
6.318376
 20
4.79423
 42
0.033513
 10
6.32387
 20
4.798057
 42
0.160447
 10
6.397967
 20
4.911828
 42
0.438565
 10
6.374241
 20
4.949047
 42
0.160447
 10
6.239825
 20
4.929898
 42
0.033513
 10
6.234037
 20
4.926532
 10
6.147587
 20
4.868186
 42
-0.40916
 10
6.078661
 20
4.880946
 42
0.004448
 10
6.049277
 20
4.922117
 42
-0.40916
 10
6.059612
 20
4.991448
 10
6.14289
 20
5.054239
 42
0.033513
 10
6.147954
 20
5.058619
 42
0.160447
 10
6.209752
 20
5.179512
 42
0.438565
 10
6.182266
 20
5.214047
 42
0.160447
 10
6.050588
 20
5.180953
 42
0.033513
 10
6.045184
 20
5.177001
 10
5.965307
 20
5.109937
 42
-0.40916
 10
5.895425
 20
5.115423
 42
0.004448
 10
5.861897
 20
5.153297
 42
-0.40916
 10
5.864929
 20
5.223328
 10
5.941187
 20
5.294481
 42
0.033513
 10
5.945765
 20
5.299365
 42
0.160447
 10
5.994589
 20
5.426056
 42
0.438565
 10
5.963643
 20
5.457529
 42
0.160447
 10
5.836146
 20
5.410852
 42
0.033513
 10
5.831184
 20
5.406356
 10
5.758755
 20
5.331311
 42
-0.40916
 10
5.688682
 20
5.329462
 42
0.004448
 10
5.651379
 20
5.363624
 42
-0.40916
 10
5.647074
 20
5.433588
 10
5.715477
 20
5.512322
 42
0.033513
 10
5.71952
 20
5.517659
 42
0.160447
 10
5.754833
 20
5.648759
 42
0.438565
 10
5.720767
 20
5.676825
 42
0.160447
 10
5.598847
 20
5.617076
 42
0.033513
 10
5.594383
 20
5.612087
 10
5.530194
 20
5.529881
 42
-0.40916
 10
5.460699
 20
5.520718
 42
0.004448
 10
5.42003
 20
5.550793
 42
-0.40916
 10
5.408435
 20
5.619925
 10
5.468233
 20
5.705377
 42
0.033513
 10
5.471696
 20
5.711107
 42
0.160447
 10
5.493112
 20
5.845181
 42
0.438565
 10
5.456298
 20
5.869532
 42
0.160447
 10
5.341292
 20
5.797366
 42
0.033513
 10
5.337374
 20
5.791937
 10
5.28213
 20
5.703473
 42
-0.40916
 10
5.213973
 20
5.687095
 42
0.004448
 10
5.170383
 20
5.712755
 42
-0.40916
 10
5.151625
 20
5.780296
 10
5.202163
 20
5.871531
 42
0.033513
 10
5.205008
 20
5.877591
 42
0.160447
 10
5.212292
 20
6.013169
 42
0.438565
 10
5.173135
 20
6.033538
 42
0.160447
 10
5.066303
 20
5.949747
 42
0.033513
 10
5.062973
 20
5.943938
 10
5.017279
 20
5.850183
 42
-0.40916
 10
4.951207
 20
5.826771
 42
0.004448
 10
4.905174
 20
5.847734
 42
-0.40916
 10
4.879459
 20
5.912944
 10
4.920184
 20
6.008962
 42
0.033513
 10
4.922379
 20
6.015287
 42
0.160447
 10
4.915452
 20
6.150883
 42
0.438565
 10
4.87438
 20
6.167048
 42
0.160447
 10
4.776891
 20
6.072548
 42
0.033513
 10
4.774187
 20
6.066424
 10
4.738543
 20
5.968406
 42
-0.40916
 10
4.675281
 20
5.938216
 42
0.004448
 10
4.627308
 20
5.954252
 42
-0.40916
 10
4.594918
 20
6.016417
 10
4.625383
 20
6.116166
 42
0.033513
 10
4.626906
 20
6.122685
 42
0.160447
 10
4.605843
 20
6.256814
 42
0.438565
 10
4.563306
 20
6.268598
 42
0.160447
 10
4.476229
 20
6.164425
 42
0.033513
 10
4.47418
 20
6.158052
 10
4.448977
 20
6.056845
 42
-0.40916
 10
4.389217
 20
6.020208
 42
0.004448
 10
4.339831
 20
6.031142
 42
-0.40916
 10
4.30112
 20
6.08958
 10
4.320992
 20
6.191967
 42
0.033513
 10
4.321825
 20
6.19861
 42
0.160447
 10
4.286857
 20
6.329803
 42
0.438565
 10
4.243322
 20
6.337075
 42
0.160447
 10
4.16761
 20
6.224371
 42
0.033513
 10
4.166239
 20
6.217818
 10
4.151753
 20
6.114532
 42
-0.40916
 10
4.09615
 20
6.071849
 42
0.004448
 10
4.045891
 20
6.07756
 42
-0.40916
 10
4.001284
 20
6.131632
 10
4.010345
 20
6.235535
 42
0.033513
 10
4.010478
 20
6.242229
 42
0.160447
 10
3.961989
 20
6.369048
 42
0.438565
 10
3.917932
 20
6.37173
 42
0.160447
 10
3.854416
 20
6.25173
 42
0.033513
 10
3.853737
 20
6.245069
 10
3.850127
 20
6.140834
 42
-0.40916
 10
3.79929
 20
6.092573
 42
0.004448
 10
3.74871
 20
6.093
 42
-0.40916
 10
3.698695
 20
6.142113
 10
3.696845
 20
6.246394
 42
0.033513
 10
3.696278
 20
6.253065
 42
0.160447
 10
3.634798
 20
6.37412
 42
0.438565
 10
3.590702
 20
6.372183
 42
0.160447
 10
3.540078
 20
6.2462
 42
0.033513
 10
3.540099
 20
6.239505
 10
3.547404
 20
6.135464
 42
-0.40916
 10
3.50189
 20
6.082153
 42
0.004448
 10
3.451543
 20
6.077291
 42
-0.40916
 10
3.396668
 20
6.120907
 10
3.383928
 20
6.224423
 42
0.033513
 10
3.382667
 20
6.230998
 42
0.160447
 10
3.30887
 20
6.344964
 42
0.438565
 10
3.265218
 20
6.338428
 42
0.160447
 10
3.22804
 20
6.207844
 42
0.033513
 10
3.22876
 20
6.201188
 10
3.246901
 20
6.09848
 42
-0.40916
 10
3.207209
 20
6.040704
 42
0.004448
 10
3.157645
 20
6.030605
 42
-0.40916
 10
3.098512
 20
6.068246
 10
3.075021
 20
6.169864
 42
0.033513
 10
3.07308
 20
6.176271
 42
0.160447
 10
2.987774
 20
6.281899
 42
0.438565
 10
2.945045
 20
6.270836
 42
0.160447
 10
2.92172
 20
6.137081
 42
0.033513
 10
2.923133
 20
6.130537
 10
2.951909
 20
6.030288
 42
-0.40916
 10
2.918474
 20
5.968679
 42
0.004448
 10
2.870238
 20
5.953455
 42
-0.40916
 10
2.807494
 20
5.984709
 10
2.77351
 20
6.083314
 42
0.033513
 10
2.77091
 20
6.089483
 42
0.160447
 10
2.67503
 20
6.185616
 42
0.438565
 10
2.633691
 20
6.170146
 42
0.160447
 10
2.624476
 20
6.034687
 42
0.033513
 10
2.626564
 20
6.028325
 10
2.665662
 20
5.931634
 42
-0.40916
 10
2.63885
 20
5.866867
 42
0.004448
 10
2.592469
 20
5.846685
 42
-0.40916
 10
2.526802
 20
5.871209
 10
2.482697
 20
5.965722
 42
0.033513
 10
2.479466
 20
5.971586
 42
0.160447
 10
2.374063
 20
6.057169
 42
0.438565
 10
2.334568
 20
6.037464
 42
0.160447
 10
2.339562
 20
5.901782
 42
0.033513
 10
2.342304
 20
5.895675
 10
2.391295
 20
5.803599
 42
-0.40916
 10
2.3714
 20
5.736385
 42
0.004448
 10
2.327383
 20
5.711465
 42
-0.40916
 10
2.259512
 20
5.728991
 10
2.20577
 20
5.818376
 42
0.033513
 10
2.201943
 20
5.82387
 42
0.160447
 10
2.088172
 20
5.897967
 42
0.438565
 10
2.050953
 20
5.874241
 42
0.160447
 10
2.070102
 20
5.739825
 42
0.033513
 10
2.073468
 20
5.734037
 10
2.131814
 20
5.647587
 42
-0.40916
 10
2.119054
 20
5.578661
 42
0.004448
 10
2.077883
 20
5.549277
 42
-0.40916
 10
2.008552
 20
5.559612
 10
1.945761
 20
5.64289
 42
0.033513
 10
1.941381
 20
5.647954
 42
0.160447
 10
1.820488
 20
5.709752
 42
0.438565
 10
1.785953
 20
5.682266
 42
0.160447
 10
1.819047
 20
5.550588
 42
0.033513
 10
1.822999
 20
5.545184
 10
1.890063
 20
5.465307
 42
-0.40916
 10
1.884577
 20
5.395425
 42
0.004448
 10
1.846703
 20
5.361897
 42
-0.40916
 10
1.776672
 20
5.364929
 10
1.705519
 20
5.441187
 42
0.033513
 10
1.700635
 20
5.445765
 42
0.160447
 10
1.573944
 20
5.494589
 42
0.438565
 10
1.542471
 20
5.463643
 42
0.160447
 10
1.589148
 20
5.336146
 42
0.033513
 10
1.593644
 20
5.331184
 10
1.668689
 20
5.258755
 42
-0.40916
 10
1.670538
 20
5.188682
 42
0.004448
 10
1.636376
 20
5.151379
 42
-0.40916
 10
1.566412
 20
5.147074
 10
1.487678
 20
5.215477
 42
0.033513
 10
1.482341
 20
5.21952
 42
0.160447
 10
1.351241
 20
5.254833
 42
0.438565
 10
1.323175
 20
5.220767
 42
0.160447
 10
1.382924
 20
5.098847
 42
0.033513
 10
1.387913
 20
5.094383
 10
1.470119
 20
5.030194
 42
-0.40916
 10
1.479282
 20
4.960699
 42
0.004448
 10
1.449207
 20
4.92003
 42
-0.40916
 10
1.380075
 20
4.908435
 10
1.294623
 20
4.968233
 42
0.033513
 10
1.288893
 20
4.971696
 42
0.160447
 10
1.154819
 20
4.993112
 42
0.438565
 10
1.130468
 20
4.956298
 42
0.160447
 10
1.202634
 20
4.841292
 42
0.033513
 10
1.208063
 20
4.837374
 10
1.296527
 20
4.78213
 42
-0.40916
 10
1.312905
 20
4.713973
 42
0.004448
 10
1.287245
 20
4.670383
 42
-0.40916
 10
1.219704
 20
4.651625
 10
1.128469
 20
4.702163
 42
0.033513
 10
1.122409
 20
4.705008
 42
0.160447
 10
0.986831
 20
4.712292
 42
0.438565
 10
0.966462
 20
4.673135
 42
0.160447
 10
1.050253
 20
4.566303
 42
0.033513
 10
1.056062
 20
4.562973
 10
1.149817
 20
4.517279
 42
-0.40916
 10
1.173229
 20
4.451207
 42
0.004448
 10
1.152266
 20
4.405174
 42
-0.40916
 10
1.087056
 20
4.379459
 10
0.991038
 20
4.420184
 42
0.033513
 10
0.984713
 20
4.422379
 42
0.160447
 10
0.849117
 20
4.415452
 42
0.438565
 10
0.832952
 20
4.37438
 42
0.160447
 10
0.927452
 20
4.276891
 42
0.033513
 10
0.933576
 20
4.274187
 10
1.031594
 20
4.238543
 42
-0.40916
 10
1.061784
 20
4.175281
 42
0.004448
 10
1.045748
 20
4.127308
 42
-0.40916
 10
0.983583
 20
4.094918
 10
0.883834
 20
4.125383
 42
0.033513
 10
0.877315
 20
4.126906
 42
0.160447
 10
0.743186
 20
4.105843
 42
0.438565
 10
0.731402
 20
4.063306
 42
0.160447
 10
0.835575
 20
3.976229
 42
0.033513
 10
0.841948
 20
3.97418
 10
0.943155
 20
3.948977
 42
-0.40916
 10
0.979792
 20
3.889217
 42
0.004448
 10
0.968858
 20
3.839831
 42
-0.40916
 10
0.91042
 20
3.80112
 10
0.808033
 20
3.820992
 42
0.033513
 10
0.80139
 20
3.821825
 42
0.160447
 10
0.670197
 20
3.786857
 42
0.438565
 10
0.662925
 20
3.743322
 42
0.160447
 10
0.775629
 20
3.66761
 42
0.033513
 10
0.782182
 20
3.666239
 10
0.885468
 20
3.651753
 42
-0.40916
 10
0.928151
 20
3.59615
 42
0.004448
 10
0.92244
 20
3.545891
 42
-0.40916
 10
0.868368
 20
3.501284
 10
0.764465
 20
3.510345
 42
0.033513
 10
0.757771
 20
3.510478
 42
0.160447
 10
0.630952
 20
3.461989
 42
0.438565
 10
0.62827
 20
3.417932
 42
0.160447
 10
0.74827
 20
3.354416
 42
0.033513
 10
0.754931
 20
3.353737
 10
0.859166
 20
3.350127
 42
-0.40916
 10
0.907427
 20
3.29929
 42
0.004448
 10
0.907
 20
3.24871
 42
-0.40916
 10
0.857887
 20
3.198695
 10
0.753606
 20
3.196845
 42
0.033513
 10
0.746935
 20
3.196278
 42
0.160447
 10
0.62588
 20
3.134798
 42
0.438565
 10
0.627817
 20
3.090702
 42
0.160447
 10
0.7538
 20
3.040078
 42
0.033513
 10
0.760495
 20
3.040099
 10
0.864536
 20
3.047404
 42
-0.40916
 10
0.917847
 20
3.00189
 42
0.004448
 10
0.922709
 20
2.951543
 42
-0.40916
 10
0.879093
 20
2.896668
 10
0.775577
 20
2.883928
 42
0.033513
 10
0.769002
 20
2.882667
 42
0.160447
 10
0.655036
 20
2.80887
 42
0.438565
 10
0.661572
 20
2.765218
 42
0.160447
 10
0.792156
 20
2.72804
 42
0.033513
 10
0.798812
 20
2.72876
 10
0.90152
 20
2.746901
 42
-0.40916
 10
0.959296
 20
2.707209
 42
0.004448
 10
0.969395
 20
2.657645
 42
-0.40916
 10
0.931754
 20
2.598512
 10
0.830136
 20
2.575021
 42
0.033513
 10
0.823729
 20
2.57308
 42
0.160447
 10
0.718101
 20
2.487774
 42
0.438565
 10
0.729164
 20
2.445045
 42
0.160447
 10
0.862919
 20
2.42172
 42
0.033513
 10
0.869463
 20
2.423133
 10
0.969712
 20
2.451909
 42
-0.40916
 10
1.031321
 20
2.418474
 42
0.004448
 10
1.046545
 20
2.370238
 42
-0.40916
 10
1.015291
 20
2.307494
 10
0.916686
 20
2.27351
 42
0.033513
 10
0.910517
 20
2.27091
 42
0.160447
 10
0.814384
 20
2.17503
 42
0.438565
 10
0.829854
 20
2.133691
 42
0.160447
 10
0.965313
 20
2.124476
 42
0.033513
 10
0.971675
 20
2.126564
 10
1.068366
 20
2.165662
 42
-0.40916
 10
1.133133
 20
2.13885
 42
0.004448
 10
1.153315
 20
2.092469
 42
-0.40916
 10
1.128791
 20
2.026802
 10
1.034278
 20
1.982697
 42
0.033513
 10
1.028414
 20
1.979466
 42
0.160447
 10
0.942831
 20
1.874063
 42
0.438565
 10
0.962536
 20
1.834568
 42
0.160447
 10
1.098218
 20
1.839562
 42
0.033513
 10
1.104325
 20
1.842304
 10
1.196401
 20
1.891295
 42
-0.40916
 10
1.263615
 20
1.8714
 42
0.004448
 10
1.288535
 20
1.827383
 42
-0.40916
 10
1.271009
 20
1.759512
 10
1.181624
 20
1.70577
 42
0.033513
 10
1.17613
 20
1.701943
 42
0.160447
 10
1.102033
 20
1.588172
 42
0.438565
 10
1.125759
 20
1.550953
 42
0.160447
 10
1.260175
 20
1.570102
 42
0.033513
 10
1.265963
 20
1.573468
 10
1.352413
 20
1.631814
 42
-0.40916
 10
1.421339
 20
1.619054
 42
0.004448
 10
1.450723
 20
1.577883
 42
-0.40916
 10
1.440388
 20
1.508552
 10
1.35711
 20
1.445761
 42
0.033513
 10
1.352046
 20
1.441381
 42
0.160447
 10
1.290248
 20
1.320488
 42
0.438565
 10
1.317734
 20
1.285953
 42
0.160447
 10
1.449412
 20
1.319047
 42
0.033513
 10
1.454816
 20
1.322999
 10
1.534693
 20
1.390063
 42
-0.40916
 10
1.604575
 20
1.384577
 42
0.004448
 10
1.638103
 20
1.346703
 42
-0.40916
 10
1.635071
 20
1.276672
 10
1.558813
 20
1.205519
 42
0.033513
 10
1.554235
 20
1.200635
 42
0.160447
 10
1.505411
 20
1.073944
 42
0.438565
 10
1.536357
 20
1.042471
  0
ENDSEC
  0
SECTION
  2
OBJECTS
  0
DICTIONARY
  5
C
330
0
100
AcDbDictionary
281
     1
  3
ACAD_GROUP
350
D
  3
ACAD_LAYOUT
350
1A
  3
ACAD_MLINESTYLE
350
17
  3
ACAD_PLOTSETTINGS
350
19
  3
ACAD_PLOTSTYLENAME
350
E
  0
DICTIONARY
  5
D
102
{ACAD_REACTORS
330
C
102
}
330
C
100
AcDbDictionary
281
     1
  0
DICTIONARY
  5
1A
102
{ACAD_REACTORS
330
C
102
}
330
C
100
AcDbDictionary
281
     1
  3
Layout1
350
1E
  3
Layout2
350
26
  3
Model
350
22
  0
DICTIONARY
  5
17
102
{ACAD_REACTORS
330
C
102
}
330
C
100
AcDbDictionary
281
     1
  3
Standard
350
18
  0
DICTIONARY
  5
19
102
{ACAD_REACTORS
330
C
102
}
330
C
100
AcDbDictionary
281
     1
  0
ACDBDICTIONARYWDFLT
  5
E
102
{ACAD_REACTORS
330
C
102
}
330
C
100
AcDbDictionary
281
     1
  3
Normal
350
F
100
AcDbDictionaryWithDefault
340
F
  0
LAYOUT
  5
1E
102
{ACAD_REACTORS
330
1A
102
}
330
1A
100
AcDbPlotSettings
  1

  2

  4

  6

 40
0.0
 41
0.0
 42
0.0
 43
0.0
 44
0.0
 45
0.0
 46
0.0
 47
0.0
 48
0.0
 49
0.0
140
0.0
141
0.0
142
1.0
143
1.0
 70
   688
 72
     0
 73
     0
 74
     5
  7

 75
    16
147
1.0
148
0.0
149
0.0
100
AcDbLayout
  1
Layout1
 70
     1
 71
     1
 10
0.0
 20
0.0
 11
420.0
 21
297.0
 12
0.0
 22
0.0
 32
0.0
 14
1.000000E+20
 24
1.000000E+20
 34
1.000000E+20
 15
-1.000000E+20
 25
-1.000000E+20
 35
-1.000000E+20
146
0.0
 13
0.0
 23
0.0
 33
0.0
 16
1.0
 26
0.0
 36
0.0
 17
0.0
 27
1.0
 37
0.0
 76
     0
330
1B
  0
LAYOUT
  5
26
102
{ACAD_REACTORS
330
1A
102
}
330
1A
100
AcDbPlotSettings
  1

  2

  4

  6

 40
0.0
 41
0.0
 42
0.0
 43
0.0
 44
0.0
 45
0.0
 46
0.0
 47
0.0
 48
0.0
 49
0.0
140
0.0
141
0.0
142
1.0
143
1.0
 70
   688
 72
     0
 73
     0
 74
     5
  7

 75
    16
147
1.0
148
0.0
149
0.0
100
AcDbLayout
  1
Layout2
 70
     1
 71
     2
 10
0.0
 20
0.0
 11
0.0
 21
0.0
 12
0.0
 22
0.0
 32
0.0
 14
0.0
 24
0.0
 34
0.0
 15
0.0
 25
0.0
 35
0.0
146
0.0
 13
0.0
 23
0.0
 33
0.0
 16
1.0
 26
0.0
 36
0.0
 17
0.0
 27
1.0
 37
0.0
 76
     0
330
23
  0
LAYOUT
  5
22
102
{ACAD_REACTORS
330
1A
102
}
330
1A
100
AcDbPlotSettings
  1

  2

  4

  6

 40
0.0
 41
0.0
 42
0.0
 43
0.0
 44
0.0
 45
0.0
 46
0.0
 47
0.0
 48
0.0
 49
0.0
140
0.0
141
0.0
142
1.0
143
1.0
 70
  1712
 72
     0
 73
     0
 74
     0
  7

 75
     0
147
1.0
148
0.0
149
0.0
100
AcDbLayout
  1
Model
 70
     1
 71
     0
 10
0.0
 20
0.0
 11
0.0
 21
0.0
 12
0.0
 22
0.0
 32
0.0
 14
0.0
 24
0.0
 34
0.0
 15
0.0
 25
0.0
 35
0.0
146
0.0
 13
0.0
 23
0.0
 33
0.0
 16
1.0
 26
0.0
 36
0.0
 17
0.0
 27
1.0
 37
0.0
 76
     0
330
1F
  0
MLINESTYLE
  5
18
102
{ACAD_REACTORS
330
17
102
}
330
17
100
AcDbMlineStyle
  2
Standard
 70
     0
  3

 62
   256
 51
90.0
 52
90.0
 71
     2
 49
1.0
 62
   256
  6
BYLAYER
 49
-1.0
 62
   256
  6
BYLAYER
  0
ACDBPLACEHOLDER
  5
F
102
{ACAD_REACTORS
330
E
102
}
330
E
  0
ENDSEC
  0
EOF
