  0
SECTION
  2
HEADER
  9
$ACADVER
  1
AC1015
  9
$ACADMAINTVER
 70
     6
  9
$DWGCODEPAGE
  3
ANSI_1252
  9
$INSBASE
 10
0.0
 20
0.0
 30
0.0
  9
$EXTMIN
 10
1.000000E+20
 20
1.000000E+20
 30
1.000000E+20
  9
$EXTMAX
 10
-1.000000E+20
 20
-1.000000E+20
 30
-1.000000E+20
  9
$LIMMIN
 10
0.0
 20
0.0
  9
$LIMMAX
 10
420.0
 20
297.0
  9
$ORTHOMODE
 70
     0
  9
$REGENMODE
 70
     1
  9
$FILLMODE
 70
     1
  9
$QTEXTMODE
 70
     0
  9
$MIRRTEXT
 70
     1
  9
$LTSCALE
 40
1.0
  9
$ATTMODE
 70
     1
  9
$TEXTSIZE
 40
2.5
  9
$TRACEWID
 40
1.0
  9
$TEXTSTYLE
  7
Standard
  9
$CLAYER
  8
0
  9
$CELTYPE
  6
ByLayer
  9
$CECOLOR
 62
   256
  9
$CELTSCALE
 40
1.0
  9
$DISPSILH
 70
     0
  9
$DIMSCALE
 40
1.0
  9
$DIMASZ
 40
2.5
  9
$DIMEXO
 40
0.625
  9
$DIMDLI
 40
3.75
  9
$DIMRND
 40
0.0
  9
$DIMDLE
 40
0.0
  9
$DIMEXE
 40
1.25
  9
$DIMTP
 40
0.0
  9
$DIMTM
 40
0.0
  9
$DIMTXT
 40
2.5
  9
$DIMCEN
 40
2.5
  9
$DIMTSZ
 40
0.0
  9
$DIMTOL
 70
     0
  9
$DIMLIM
 70
     0
  9
$DIMTIH
 70
     0
  9
$DIMTOH
 70
     0
  9
$DIMSE1
 70
     0
  9
$DIMSE2
 70
     0
  9
$DIMTAD
 70
     1
  9
$DIMZIN
 70
     8
  9
$DIMBLK
  1

  9
$DIMASO
 70
     1
  9
$DIMSHO
 70
     1
  9
$DIMPOST
  1

  9
$DIMAPOST
  1

  9
$DIMALT
 70
     0
  9
$DIMALTD
 70
     3
  9
$DIMALTF
 40
0.03937
  9
$DIMLFAC
 40
1.0
  9
$DIMTOFL
 70
     1
  9
$DIMTVP
 40
0.0
  9
$DIMTIX
 70
     0
  9
$DIMSOXD
 70
     0
  9
$DIMSAH
 70
     0
  9
$DIMBLK1
  1

  9
$DIMBLK2
  1

  9
$DIMSTYLE
  2
ISO-25
  9
$DIMCLRD
 70
     0
  9
$DIMCLRE
 70
     0
  9
$DIMCLRT
 70
     0
  9
$DIMTFAC
 40
1.0
  9
$DIMGAP
 40
0.625
  9
$DIMJUST
 70
     0
  9
$DIMSD1
 70
     0
  9
$DIMSD2
 70
     0
  9
$DIMTOLJ
 70
     0
  9
$DIMTZIN
 70
     8
  9
$DIMALTZ
 70
     0
  9
$DIMALTTZ
 70
     0
  9
$DIMUPT
 70
     0
  9
$DIMDEC
 70
     2
  9
$DIMTDEC
 70
     2
  9
$DIMALTU
 70
     2
  9
$DIMALTTD
 70
     3
  9
$DIMTXSTY
  7
Standard
  9
$DIMAUNIT
 70
     0
  9
$DIMADEC
 70
     0
  9
$DIMALTRND
 40
0.0
  9
$DIMAZIN
 70
     0
  9
$DIMDSEP
 70
    44
  9
$DIMATFIT
 70
     3
  9
$DIMFRAC
 70
     0
  9
$DIMLDRBLK
  1

  9
$DIMLUNIT
 70
     2
  9
$DIMLWD
 70
    -2
  9
$DIMLWE
 70
    -2
  9
$DIMTMOVE
 70
     0
  9
$LUNITS
 70
     2
  9
$LUPREC
 70
     4
  9
$SKETCHINC
 40
1.0
  9
$FILLETRAD
 40
10.0
  9
$AUNITS
 70
     0
  9
$AUPREC
 70
     0
  9
$MENU
  1
.
  9
$ELEVATION
 40
0.0
  9
$PELEVATION
 40
0.0
  9
$THICKNESS
 40
0.0
  9
$LIMCHECK
 70
     0
  9
$CHAMFERA
 40
10.0
  9
$CHAMFERB
 40
10.0
  9
$CHAMFERC
 40
20.0
  9
$CHAMFERD
 40
0.0
  9
$SKPOLY
 70
     0
  9
$TDCREATE
 40
2454515.630572824
  9
$TDUCREATE
 40
2454515.630572824
  9
$TDUPDATE
 40
2454515.630572835
  9
$TDUUPDATE
 40
2454515.630572835
  9
$TDINDWG
 40
0.0000000116
  9
$TDUSRTIMER
 40
0.0000000116
  9
$USRTIMER
 70
     1
  9
$ANGBASE
 50
0.0
  9
$ANGDIR
 70
     0
  9
$PDMODE
 70
     3
  9
$PDSIZE
 40
-0.7
  9
$PLINEWID
 40
0.0
  9
$SPLFRAME
 70
     0
  9
$SPLINETYPE
 70
     6
  9
$SPLINESEGS
 70
     8
  9
$HANDSEED
  5
3F
  9
$SURFTAB1
 70
     6
  9
$SURFTAB2
 70
     6
  9
$SURFTYPE
 70
     6
  9
$SURFU
 70
     6
  9
$SURFV
 70
     6
  9
$UCSBASE
  2

  9
$UCSNAME
  2

  9
$UCSORG
 10
0.0
 20
0.0
 30
0.0
  9
$UCSXDIR
 10
1.0
 20
0.0
 30
0.0
  9
$UCSYDIR
 10
0.0
 20
1.0
 30
0.0
  9
$UCSORTHOREF
  2

  9
$UCSORTHOVIEW
 70
     0
  9
$UCSORGTOP
 10
0.0
 20
0.0
 30
0.0
  9
$UCSORGBOTTOM
 10
0.0
 20
0.0
 30
0.0
  9
$UCSORGLEFT
 10
0.0
 20
0.0
 30
0.0
  9
$UCSORGRIGHT
 10
0.0
 20
0.0
 30
0.0
  9
$UCSORGFRONT
 10
0.0
 20
0.0
 30
0.0
  9
$UCSORGBACK
 10
0.0
 20
0.0
 30
0.0
  9
$PUCSBASE
  2

  9
$PUCSNAME
  2

  9
$PUCSORG
 10
0.0
 20
0.0
 30
0.0
  9
$PUCSXDIR
 10
1.0
 20
0.0
 30
0.0
  9
$PUCSYDIR
 10
0.0
 20
1.0
 30
0.0
  9
$PUCSORTHOREF
  2

  9
$PUCSORTHOVIEW
 70
     0
  9
$PUCSORGTOP
 10
0.0
 20
0.0
 30
0.0
  9
$PUCSORGBOTTOM
 10
0.0
 20
0.0
 30
0.0
  9
$PUCSORGLEFT
 10
0.0
 20
0.0
 30
0.0
  9
$PUCSORGRIGHT
 10
0.0
 20
0.0
 30
0.0
  9
$PUCSORGFRONT
 10
0.0
 20
0.0
 30
0.0
  9
$PUCSORGBACK
 10
0.0
 20
0.0
 30
0.0
  9
$USERI1
 70
     0
  9
$USERI2
 70
     0
  9
$USERI3
 70
     0
  9
$USERI4
 70
     0
  9
$USERI5
 70
     0
  9
$USERR1
 40
0.0
  9
$USERR2
 40
0.0
  9
$USERR3
 40
0.0
  9
$USERR4
 40
0.0
  9
$USERR5
 40
0.0
  9
$WORLDVIEW
 70
     1
  9
$SHADEDGE
 70
     3
  9
$SHADEDIF
 70
    70
  9
$TILEMODE
 70
     1
  9
$MAXACTVP
 70
    64
  9
$PINSBASE
 10
0.0
 20
0.0
 30
0.0
  9
$PLIMCHECK
 70
     0
  9
$PEXTMIN
 10
1.000000E+20
 20
1.000000E+20
 30
1.000000E+20
  9
$PEXTMAX
 10
-1.000000E+20
 20
-1.000000E+20
 30
-1.000000E+20
  9
$PLIMMIN
 10
0.0
 20
0.0
  9
$PLIMMAX
 10
420.0
 20
297.0
  9
$UNITMODE
 70
     0
  9
$VISRETAIN
 70
     1
  9
$PLINEGEN
 70
     0
  9
$PSLTSCALE
 70
     1
  9
$TREEDEPTH
 70
  3020
  9
$CMLSTYLE
  2
Standard
  9
$CMLJUST
 70
     1
  9
$CMLSCALE
 40
1.0
  9
$PROXYGRAPHICS
 70
     1
  9
$MEASUREMENT
 70
     1
  9
$CELWEIGHT
370
    -1
  9
$ENDCAPS
280
     0
  9
$JOINSTYLE
280
     0
  9
$LWDISPLAY
290
     0
  9
$INSUNITS
 70
     4
  9
$HYPERLINKBASE
  1

  9
$STYLESHEET
  1

  9
$XEDIT
290
     1
  9
$CEPSNTYPE
380
     0
  9
$PSTYLEMODE
290
     1
  9
$FINGERPRINTGUID
  2
{FAEB1C30-E019-11D5-929B-00C0DF256EC4}
  9
$VERSIONGUID
  2
{FAEB1C32-E019-11D5-929B-00C0DF256EC4}
  9
$EXTNAMES
290
     1
  9
$PSVPSCALE
 40
0.0
  9
$OLESTARTUP
290
     0
  0
ENDSEC
  0
SECTION
  2
CLASSES
  0
CLASS
  1
ACDBDICTIONARYWDFLT
  2
AcDbDictionaryWithDefault
  3
ObjectDBX Classes
 90
        0
280
     0
281
     0
  0
CLASS
  1
ACDBPLACEHOLDER
  2
AcDbPlaceHolder
  3
ObjectDBX Classes
 90
        0
280
     0
281
     0
  0
CLASS
  1
LAYOUT
  2
AcDbLayout
  3
ObjectDBX Classes
 90
        0
280
     0
281
     0
  0
ENDSEC
  0
SECTION
  2
TABLES
  0
TABLE
  2
VPORT
  5
8
330
0
100
AcDbSymbolTable
 70
     2
  0
VPORT
  5
29
330
8
100
AcDbSymbolTableRecord
100
AcDbViewportTableRecord
  2
*Active
 70
     0
 10
0.0
 20
0.0
 11
1.0
 21
1.0
 12
50.0
 22
50.0
 13
0.0
 23
0.0
 14
10.0
 24
10.0
 15
10.0
 25
10.0
 16
0.0
 26
0.0
 36
1.0
 17
0.0
 27
0.0
 37
0.0
 40
103.921569
 41
1.0
 42
50.0
 43
0.0
 44
0.0
 50
0.0
 51
0.0
 71
     0
 72
   100
 73
     1
 74
     3
 75
     0
 76
     0
 77
     0
 78
     0
281
     0
 65
     1
110
0.0
120
0.0
130
0.0
111
1.0
121
0.0
131
0.0
112
0.0
122
1.0
132
0.0
 79
     0
146
0.0
  0
ENDTAB
  0
TABLE
  2
LTYPE
  5
5
330
0
100
AcDbSymbolTable
 70
     1
  0
LTYPE
  5
14
330
5
100
AcDbSymbolTableRecord
100
AcDbLinetypeTableRecord
  2
ByBlock
 70
     0
  3

 72
    65
 73
     0
 40
0.0
  0
LTYPE
  5
15
330
5
100
AcDbSymbolTableRecord
100
AcDbLinetypeTableRecord
  2
ByLayer
 70
     0
  3

 72
    65
 73
     0
 40
0.0
  0
LTYPE
  5
16
330
5
100
AcDbSymbolTableRecord
100
AcDbLinetypeTableRecord
  2
Continuous
 70
     0
  3

 72
    65
 73
     0
 40
0.0
  0
ENDTAB
  0
TABLE
  2
LAYER
  5
2
330
0
100
AcDbSymbolTable
 70
     1
  0
LAYER
  5
10
330
2
100
AcDbSymbolTableRecord
100
AcDbLayerTableRecord
  2
0
 70
     0
 62
     7
  6
Continuous
370
    -3
390
F
  0
ENDTAB
  0
TABLE
  2
STYLE
  5
3
330
0
100
AcDbSymbolTable
 70
     1
  0
STYLE
  5
11
330
3
100
AcDbSymbolTableRecord
100
AcDbTextStyleTableRecord
  2
Standard
 70
     0
 40
1.0
 41
1.0
 50
0.0
 71
     0
 42
2.5
  3
RomanS
  4

  0
ENDTAB
  0
TABLE
  2
VIEW
  5
6
330
0
100
AcDbSymbolTable
 70
     0
  0
ENDTAB
  0
TABLE
  2
UCS
  5
7
330
0
100
AcDbSymbolTable
 70
     0
  0
ENDTAB
  0
TABLE
  2
APPID
  5
9
330
0
100
AcDbSymbolTable
 70
     1
  0
APPID
  5
12
330
9
100
AcDbSymbolTableRecord
100
AcDbRegAppTableRecord
  2
ACAD
 70
     0
  0
ENDTAB
  0
TABLE
  2
DIMSTYLE
  5
A
330
0
100
AcDbSymbolTable
 70
     1
100
AcDbDimStyleTable
  0
DIMSTYLE
105
27
330
A
100
AcDbSymbolTableRecord
100
AcDbDimStyleTableRecord
  2
ISO-25
 70
     0
 41
2.5
 42
0.625
 44
1.25
 73
     0
 74
     0
 77
     1
 78
     8
 79
     2
140
2.5
141
2.5
146
0.0
147
0.625
271
     2
272
     0
273
     0
274
     0
278
    44
283
     0
289
     0
340
11
  0
ENDTAB
  0
TABLE
  2
BLOCK_RECORD
  5
1
330
0
100
AcDbSymbolTable
 70
     1
  0
BLOCK_RECORD
  5
1F
330
1
100
AcDbSymbolTableRecord
100
AcDbBlockTableRecord
  2
*Model_Space
340
22
  0
BLOCK_RECORD
  5
1B
330
1
100
AcDbSymbolTableRecord
100
AcDbBlockTableRecord
  2
*Paper_Space
340
1E
  0
BLOCK_RECORD
  5
23
330
1
100
AcDbSymbolTableRecord
100
AcDbBlockTableRecord
  2
*Paper_Space0
340
26
  0
ENDTAB
  0
ENDSEC
  0
SECTION
  2
BLOCKS
  0
BLOCK
  5
20
330
1F
100
AcDbEntity
  8
0
100
AcDbBlockBegin
  2
*Model_Space
 70
     0
 71
     0
 10
0.0
 20
0.0
 30
0.0
  3
*Model_Space
  1

  0
ENDBLK
  5
21
330
1F
100
AcDbEntity
  8
0
100
AcDbBlockEnd
  0
BLOCK
  5
1C
330
1B
100
AcDbEntity
 67
     1
  8
0
100
AcDbBlockBegin
  2
*Paper_Space
 70
     0
 71
     0
 10
0.0
 20
0.0
 30
0.0
  3
*Paper_Space
  1

  0
ENDBLK
  5
1D
330
1B
100
AcDbEntity
 67
     1
  8
0
100
AcDbBlockEnd
  0
BLOCK
  5
24
330
23
100
AcDbEntity
  8
0
100
AcDbBlockBegin
  2
*Paper_Space0
 70
     0
 71
     0
 10
0.0
 20
0.0
 30
0.0
  3
*Paper_Space0
  1

  0
ENDBLK
  5
25
330
23
100
AcDbEntity
  8
0
100
AcDbBlockEnd
  0
ENDSEC
  0
SECTION
  2
ENTITIES
  0
LWPOLYLINE
  5
2A
330
1F
100
AcDbEntity
  8
0
100
AcDbPolyline
 90
        5
 70
   128
 43
0.0
 10
1.29872
 20
0.0
 42
-0.414214
 10
0.0
 20
-1.29872
 42
-0.414214
 10
-1.29872
 20
0.0
 42
-0.414214
 10
0.0
 20
1.29872
 42
-0.414214
 10
1.29872
 20
0.0
  0
LWPOLYLINE
  5
2B
330
1F
100
AcDbEntity
  8
0
100
AcDbPolyline
 90
        5
 70
   128
 43
0.0
 10
1.368651
 20
0.0
 42
-0.414214
 10
0.0
 20
-1.368651
 42
-0.414214
 10
-1.368651
 20
0.0
 42
-0.414214
 10
0.0
 20
1.368651
 42
-0.414214
 10
1.368651
 20
0.0
  0
LWPOLYLINE
  5
2C
330
1F
100
AcDbEntity
  8
0
100
AcDbPolyline
 90
        5
 70
   128
 43
0.0
 10
0.098425
 20
0.519488
 42
-0.414214
 10
0.0
 20
0.421063
 42
-0.414214
 10
-0.098425
 20
0.519488
 42
-0.414214
 10
0.0
 20
0.617913
 42
-0.414214
 10
0.098425
 20
0.519488
  0
LWPOLYLINE
  5
2D
330
1F
100
AcDbEntity
  8
0
100
AcDbPolyline
 90
        5
 70
   128
 43
0.0
 10
0.15748
 20
0.0
 42
-0.414214
 10
0.0
 20
-0.15748
 42
-0.414214
 10
-0.15748
 20
0.0
 42
-0.414214
 10
0.0
 20
0.15748
 42
-0.414214
 10
0.15748
 20
0.0
  0
LWPOLYLINE
  5
2E
330
1F
100
AcDbEntity
  8
0
100
AcDbPolyline
 90
        5
 70
   128
 43
0.0
 10
1.102362
 20
0.0
 42
-0.414214
 10
0.0
 20
-1.102362
 42
-0.414214
 10
-1.102362
 20
0.0
 42
-0.414214
 10
0.0
 20
1.102362
 42
-0.414214
 10
1.102362
 20
0.0
  0
LWPOLYLINE
  5
2F
330
1F
100
AcDbEntity
  8
0
100
AcDbPolyline
 90
        9
 70
   128
 43
0.0
 10
0.084317
 20
0.765166
 42
-0.316241
 10
0.04384
 20
0.82096
 10
0.04201
 20
0.942673
 42
-0.450613
 10
0.108382
 20
1.003168
 42
-0.058455
 10
0.337609
 20
0.950849
 42
-0.450613
 10
0.37116
 20
0.867546
 10
0.290833
 20
0.706967
 42
-0.527973
 10
0.192746
 20
0.693603
 42
0.127061
 10
0.084317
 20
0.765166
  0
LWPOLYLINE
  5
30
330
1F
100
AcDbEntity
  8
0
100
AcDbPolyline
 90
        9
 70
   128
 43
0.0
 10
0.399143
 20
0.379615
 10
0.710818
 20
0.620592
 42
0.450613
 10
0.716733
 20
0.710202
 42
0.058455
 10
0.532907
 20
0.856798
 42
0.450613
 10
0.446859
 20
0.831092
 10
0.291141
 20
0.494899
 42
0.205793
 10
0.289823
 20
0.44758
 10
0.306771
 20
0.404909
 42
0.498841
 10
0.399143
 20
0.379615
  0
LWPOLYLINE
  5
31
330
1F
100
AcDbEntity
  8
0
100
AcDbPolyline
 90
        9
 70
   128
 43
0.0
 10
0.459658
 20
0.1551
 10
0.90969
 20
0.250721
 42
0.450613
 10
0.953899
 20
0.328891
 42
0.058455
 10
0.851884
 20
0.540728
 42
0.450613
 10
0.763204
 20
0.554902
 10
0.408022
 20
0.262811
 42
0.326026
 10
0.390387
 20
0.194388
 10
0.391492
 20
0.191605
 42
0.365618
 10
0.459658
 20
0.1551
  0
LWPOLYLINE
  5
32
330
1F
100
AcDbEntity
  8
0
100
AcDbPolyline
 90
        9
 70
   128
 43
0.0
 10
0.480296
 20
-0.059421
 42
-0.346375
 10
0.434571
 20
-0.001046
 42
0.001203
 10
0.434571
 20
0.001046
 42
-0.346375
 10
0.480296
 20
0.059421
 10
0.928389
 20
0.168809
 42
-0.450614
 10
1.002135
 20
0.117561
 42
-0.058455
 10
1.002134
 20
-0.117561
 42
-0.450614
 10
0.928386
 20
-0.168808
 10
0.480296
 20
-0.059421
  0
LWPOLYLINE
  5
33
330
1F
100
AcDbEntity
  8
0
100
AcDbPolyline
 90
        9
 70
   128
 43
0.0
 10
-0.290834
 20
0.706967
 42
0.527974
 10
-0.192746
 20
0.693603
 42
-0.127061
 10
-0.084316
 20
0.765166
 42
0.316241
 10
-0.04384
 20
0.82096
 10
-0.04201
 20
0.942673
 42
0.450613
 10
-0.108382
 20
1.003168
 42
0.058455
 10
-0.337609
 20
0.950849
 42
0.450613
 10
-0.371161
 20
0.867546
 10
-0.290834
 20
0.706967
  0
LWPOLYLINE
  5
34
330
1F
100
AcDbEntity
  8
0
100
AcDbPolyline
 90
        9
 70
   128
 43
0.0
 10
0.40695
 20
-0.261929
 10
0.763207
 20
-0.554905
 42
0.450614
 10
0.851885
 20
-0.54073
 42
0.058455
 10
0.953899
 20
-0.328891
 42
0.450614
 10
0.90969
 20
-0.250721
 10
0.458514
 20
-0.154856
 42
0.346375
 10
0.391988
 20
-0.187611
 42
-0.001203
 10
0.391081
 20
-0.189495
 42
0.346375
 10
0.40695
 20
-0.261929
  0
LWPOLYLINE
  5
35
330
1F
100
AcDbEntity
  8
0
100
AcDbPolyline
 90
        9
 70
   128
 43
0.0
 10
-0.710818
 20
0.620591
 10
-0.399143
 20
0.379615
 42
0.498841
 10
-0.306772
 20
0.404909
 10
-0.289823
 20
0.44758
 42
0.205793
 10
-0.291141
 20
0.494899
 10
-0.44686
 20
0.831091
 42
0.450613
 10
-0.532908
 20
0.856798
 42
0.058455
 10
-0.716733
 20
0.710202
 42
0.450613
 10
-0.710818
 20
0.620591
  0
LWPOLYLINE
  5
36
330
1F
100
AcDbEntity
  8
0
100
AcDbPolyline
 90
        7
 70
   128
 43
0.0
 10
0.0
 20
-0.375221
 42
-0.575601
 10
-0.325932
 20
0.185902
 42
0.266077
 10
-0.195047
 20
0.473508
 42
-0.483767
 10
0.0
 20
0.719882
 42
-0.483767
 10
0.195047
 20
0.473508
 42
0.266077
 10
0.325932
 20
0.185902
 42
-0.575601
 10
0.0
 20
-0.375221
  0
LWPOLYLINE
  5
37
330
1F
100
AcDbEntity
  8
0
100
AcDbPolyline
 90
        9
 70
   128
 43
0.0
 10
0.418192
 20
-0.7692
 10
0.253003
 20
-0.412559
 42
-0.346375
 10
0.270133
 20
-0.340413
 42
0.001204
 10
0.27177
 20
-0.33911
 42
-0.346375
 10
0.34592
 20
-0.338465
 10
0.703845
 20
-0.6152
 42
-0.518039
 10
0.699389
 20
-0.718015
 42
-0.059168
 10
0.492327
 20
-0.803387
 42
-0.367835
 10
0.418192
 20
-0.7692
  0
LWPOLYLINE
  5
38
330
1F
100
AcDbEntity
  8
0
100
AcDbPolyline
 90
        9
 70
   128
 43
0.0
 10
-0.90969
 20
0.250721
 10
-0.459658
 20
0.1551
 42
0.365619
 10
-0.391492
 20
0.191605
 10
-0.390387
 20
0.194388
 42
0.326026
 10
-0.408022
 20
0.26281
 10
-0.763204
 20
0.554902
 42
0.450613
 10
-0.851884
 20
0.540728
 42
0.058455
 10
-0.953899
 20
0.328891
 42
0.450613
 10
-0.90969
 20
0.250721
  0
LWPOLYLINE
  5
39
330
1F
100
AcDbEntity
  8
0
100
AcDbPolyline
 90
        9
 70
   128
 43
0.0
 10
0.111201
 20
-0.871502
 42
0.024225
 10
0.272545
 20
-0.852898
 42
0.505262
 10
0.318644
 20
-0.762562
 10
0.164807
 20
-0.455032
 42
0.346375
 10
0.09772
 20
-0.423442
 42
-0.001203
 10
0.095682
 20
-0.423908
 42
0.346375
 10
0.048945
 20
-0.481476
 10
0.044039
 20
-0.807701
 42
0.438258
 10
0.111201
 20
-0.871502
  0
LWPOLYLINE
  5
3A
330
1F
100
AcDbEntity
  8
0
100
AcDbPolyline
 90
        9
 70
   128
 43
0.0
 10
-0.928386
 20
-0.168808
 10
-0.480296
 20
-0.059421
 42
0.346375
 10
-0.434571
 20
-0.001046
 42
-0.001203
 10
-0.434571
 20
0.001046
 42
0.346375
 10
-0.480296
 20
0.059421
 10
-0.928386
 20
0.168808
 42
0.450614
 10
-1.002134
 20
0.117561
 42
0.058455
 10
-1.002134
 20
-0.117561
 42
0.450613
 10
-0.928386
 20
-0.168808
  0
LWPOLYLINE
  5
3B
330
1F
100
AcDbEntity
  8
0
100
AcDbPolyline
 90
        9
 70
   128
 43
0.0
 10
-0.272545
 20
-0.852899
 42
0.024225
 10
-0.111202
 20
-0.871502
 42
0.438261
 10
-0.044039
 20
-0.807701
 10
-0.048945
 20
-0.481476
 42
0.346374
 10
-0.095682
 20
-0.423908
 42
-0.001203
 10
-0.09772
 20
-0.423442
 42
0.346375
 10
-0.164807
 20
-0.455032
 10
-0.318644
 20
-0.762562
 42
0.505261
 10
-0.272545
 20
-0.852899
  0
LWPOLYLINE
  5
3C
330
1F
100
AcDbEntity
  8
0
100
AcDbPolyline
 90
        9
 70
   128
 43
0.0
 10
-0.763204
 20
-0.554902
 10
-0.40695
 20
-0.261929
 42
0.346375
 10
-0.391081
 20
-0.189495
 42
-0.001203
 10
-0.391988
 20
-0.187611
 42
0.346375
 10
-0.458514
 20
-0.154856
 10
-0.90969
 20
-0.250721
 42
0.450614
 10
-0.953899
 20
-0.328891
 42
0.058455
 10
-0.851884
 20
-0.540728
 42
0.450613
 10
-0.763204
 20
-0.554902
  0
LWPOLYLINE
  5
3D
330
1F
100
AcDbEntity
  8
0
100
AcDbPolyline
 90
        9
 70
   128
 43
0.0
 10
-0.699391
 20
-0.718015
 42
0.117727
 10
-0.493015
 20
-0.801089
 42
0.375094
 10
-0.417338
 20
-0.767355
 10
-0.253003
 20
-0.412559
 42
0.346375
 10
-0.270133
 20
-0.340413
 42
-0.001203
 10
-0.271768
 20
-0.339109
 42
0.346375
 10
-0.345917
 20
-0.338462
 10
-0.703846
 20
-0.615201
 42
0.518037
 10
-0.699391
 20
-0.718015
  0
LWPOLYLINE
  5
3E
330
1F
100
AcDbEntity
  8
0
100
AcDbPolyline
 90
        6
 70
   128
 43
0.0
 10
-0.822906
 20
-0.697804
 42
0.118055
 10
-0.675013
 20
-0.806193
 42
0.201374
 10
0.675014
 20
-0.806191
 42
0.118056
 10
0.822908
 20
-0.697802
 42
0.638894
 10
-0.000001
 20
1.078937
 42
0.638894
 10
-0.822906
 20
-0.697804
  0
ENDSEC
  0
SECTION
  2
OBJECTS
  0
DICTIONARY
  5
C
330
0
100
AcDbDictionary
281
     1
  3
ACAD_GROUP
350
D
  3
ACAD_LAYOUT
350
1A
  3
ACAD_MLINESTYLE
350
17
  3
ACAD_PLOTSETTINGS
350
19
  3
ACAD_PLOTSTYLENAME
350
E
  0
DICTIONARY
  5
D
102
{ACAD_REACTORS
330
C
102
}
330
C
100
AcDbDictionary
281
     1
  0
DICTIONARY
  5
1A
102
{ACAD_REACTORS
330
C
102
}
330
C
100
AcDbDictionary
281
     1
  3
Layout1
350
1E
  3
Layout2
350
26
  3
Model
350
22
  0
DICTIONARY
  5
17
102
{ACAD_REACTORS
330
C
102
}
330
C
100
AcDbDictionary
281
     1
  3
Standard
350
18
  0
DICTIONARY
  5
19
102
{ACAD_REACTORS
330
C
102
}
330
C
100
AcDbDictionary
281
     1
  0
ACDBDICTIONARYWDFLT
  5
E
102
{ACAD_REACTORS
330
C
102
}
330
C
100
AcDbDictionary
281
     1
  3
Normal
350
F
100
AcDbDictionaryWithDefault
340
F
  0
LAYOUT
  5
1E
102
{ACAD_REACTORS
330
1A
102
}
330
1A
100
AcDbPlotSettings
  1

  2

  4

  6

 40
0.0
 41
0.0
 42
0.0
 43
0.0
 44
0.0
 45
0.0
 46
0.0
 47
0.0
 48
0.0
 49
0.0
140
0.0
141
0.0
142
1.0
143
1.0
 70
   688
 72
     0
 73
     0
 74
     5
  7

 75
    16
147
1.0
148
0.0
149
0.0
100
AcDbLayout
  1
Layout1
 70
     1
 71
     1
 10
0.0
 20
0.0
 11
420.0
 21
297.0
 12
0.0
 22
0.0
 32
0.0
 14
1.000000E+20
 24
1.000000E+20
 34
1.000000E+20
 15
-1.000000E+20
 25
-1.000000E+20
 35
-1.000000E+20
146
0.0
 13
0.0
 23
0.0
 33
0.0
 16
1.0
 26
0.0
 36
0.0
 17
0.0
 27
1.0
 37
0.0
 76
     0
330
1B
  0
LAYOUT
  5
26
102
{ACAD_REACTORS
330
1A
102
}
330
1A
100
AcDbPlotSettings
  1

  2

  4

  6

 40
0.0
 41
0.0
 42
0.0
 43
0.0
 44
0.0
 45
0.0
 46
0.0
 47
0.0
 48
0.0
 49
0.0
140
0.0
141
0.0
142
1.0
143
1.0
 70
   688
 72
     0
 73
     0
 74
     5
  7

 75
    16
147
1.0
148
0.0
149
0.0
100
AcDbLayout
  1
Layout2
 70
     1
 71
     2
 10
0.0
 20
0.0
 11
0.0
 21
0.0
 12
0.0
 22
0.0
 32
0.0
 14
0.0
 24
0.0
 34
0.0
 15
0.0
 25
0.0
 35
0.0
146
0.0
 13
0.0
 23
0.0
 33
0.0
 16
1.0
 26
0.0
 36
0.0
 17
0.0
 27
1.0
 37
0.0
 76
     0
330
23
  0
LAYOUT
  5
22
102
{ACAD_REACTORS
330
1A
102
}
330
1A
100
AcDbPlotSettings
  1

  2

  4

  6

 40
0.0
 41
0.0
 42
0.0
 43
0.0
 44
0.0
 45
0.0
 46
0.0
 47
0.0
 48
0.0
 49
0.0
140
0.0
141
0.0
142
1.0
143
1.0
 70
  1712
 72
     0
 73
     0
 74
     0
  7

 75
     0
147
1.0
148
0.0
149
0.0
100
AcDbLayout
  1
Model
 70
     1
 71
     0
 10
0.0
 20
0.0
 11
0.0
 21
0.0
 12
0.0
 22
0.0
 32
0.0
 14
0.0
 24
0.0
 34
0.0
 15
0.0
 25
0.0
 35
0.0
146
0.0
 13
0.0
 23
0.0
 33
0.0
 16
1.0
 26
0.0
 36
0.0
 17
0.0
 27
1.0
 37
0.0
 76
     0
330
1F
  0
MLINESTYLE
  5
18
102
{ACAD_REACTORS
330
17
102
}
330
17
100
AcDbMlineStyle
  2
Standard
 70
     0
  3

 62
   256
 51
90.0
 52
90.0
 71
     2
 49
1.0
 62
   256
  6
BYLAYER
 49
-1.0
 62
   256
  6
BYLAYER
  0
ACDBPLACEHOLDER
  5
F
102
{ACAD_REACTORS
330
E
102
}
330
E
  0
ENDSEC
  0
EOF
