  0
SECTION
  2
HEADER
  9
$ACADVER
  1
AC1015
  9
$ACADMAINTVER
 70
     6
  9
$DWGCODEPAGE
  3
ANSI_1252
  9
$INSBASE
 10
0.0
 20
0.0
 30
0.0
  9
$EXTMIN
 10
1.000000E+20
 20
1.000000E+20
 30
1.000000E+20
  9
$EXTMAX
 10
-1.000000E+20
 20
-1.000000E+20
 30
-1.000000E+20
  9
$LIMMIN
 10
0.0
 20
0.0
  9
$LIMMAX
 10
420.0
 20
297.0
  9
$ORTHOMODE
 70
     0
  9
$REGENMODE
 70
     1
  9
$FILLMODE
 70
     1
  9
$QTEXTMODE
 70
     0
  9
$MIRRTEXT
 70
     1
  9
$LTSCALE
 40
1.0
  9
$ATTMODE
 70
     1
  9
$TEXTSIZE
 40
2.5
  9
$TRACEWID
 40
1.0
  9
$TEXTSTYLE
  7
Standard
  9
$CLAYER
  8
0
  9
$CELTYPE
  6
ByLayer
  9
$CECOLOR
 62
   256
  9
$CELTSCALE
 40
1.0
  9
$DISPSILH
 70
     0
  9
$DIMSCALE
 40
1.0
  9
$DIMASZ
 40
2.5
  9
$DIMEXO
 40
0.625
  9
$DIMDLI
 40
3.75
  9
$DIMRND
 40
0.0
  9
$DIMDLE
 40
0.0
  9
$DIMEXE
 40
1.25
  9
$DIMTP
 40
0.0
  9
$DIMTM
 40
0.0
  9
$DIMTXT
 40
2.5
  9
$DIMCEN
 40
2.5
  9
$DIMTSZ
 40
0.0
  9
$DIMTOL
 70
     0
  9
$DIMLIM
 70
     0
  9
$DIMTIH
 70
     0
  9
$DIMTOH
 70
     0
  9
$DIMSE1
 70
     0
  9
$DIMSE2
 70
     0
  9
$DIMTAD
 70
     1
  9
$DIMZIN
 70
     8
  9
$DIMBLK
  1

  9
$DIMASO
 70
     1
  9
$DIMSHO
 70
     1
  9
$DIMPOST
  1

  9
$DIMAPOST
  1

  9
$DIMALT
 70
     0
  9
$DIMALTD
 70
     3
  9
$DIMALTF
 40
0.03937
  9
$DIMLFAC
 40
1.0
  9
$DIMTOFL
 70
     1
  9
$DIMTVP
 40
0.0
  9
$DIMTIX
 70
     0
  9
$DIMSOXD
 70
     0
  9
$DIMSAH
 70
     0
  9
$DIMBLK1
  1

  9
$DIMBLK2
  1

  9
$DIMSTYLE
  2
ISO-25
  9
$DIMCLRD
 70
     0
  9
$DIMCLRE
 70
     0
  9
$DIMCLRT
 70
     0
  9
$DIMTFAC
 40
1.0
  9
$DIMGAP
 40
0.625
  9
$DIMJUST
 70
     0
  9
$DIMSD1
 70
     0
  9
$DIMSD2
 70
     0
  9
$DIMTOLJ
 70
     0
  9
$DIMTZIN
 70
     8
  9
$DIMALTZ
 70
     0
  9
$DIMALTTZ
 70
     0
  9
$DIMUPT
 70
     0
  9
$DIMDEC
 70
     2
  9
$DIMTDEC
 70
     2
  9
$DIMALTU
 70
     2
  9
$DIMALTTD
 70
     3
  9
$DIMTXSTY
  7
Standard
  9
$DIMAUNIT
 70
     0
  9
$DIMADEC
 70
     0
  9
$DIMALTRND
 40
0.0
  9
$DIMAZIN
 70
     0
  9
$DIMDSEP
 70
    44
  9
$DIMATFIT
 70
     3
  9
$DIMFRAC
 70
     0
  9
$DIMLDRBLK
  1

  9
$DIMLUNIT
 70
     2
  9
$DIMLWD
 70
    -2
  9
$DIMLWE
 70
    -2
  9
$DIMTMOVE
 70
     0
  9
$LUNITS
 70
     2
  9
$LUPREC
 70
     4
  9
$SKETCHINC
 40
1.0
  9
$FILLETRAD
 40
10.0
  9
$AUNITS
 70
     0
  9
$AUPREC
 70
     0
  9
$MENU
  1
.
  9
$ELEVATION
 40
0.0
  9
$PELEVATION
 40
0.0
  9
$THICKNESS
 40
0.0
  9
$LIMCHECK
 70
     0
  9
$CHAMFERA
 40
10.0
  9
$CHAMFERB
 40
10.0
  9
$CHAMFERC
 40
20.0
  9
$CHAMFERD
 40
0.0
  9
$SKPOLY
 70
     0
  9
$TDCREATE
 40
2454509.573702766
  9
$TDUCREATE
 40
2454509.573702766
  9
$TDUPDATE
 40
2454509.573702778
  9
$TDUUPDATE
 40
2454509.573702778
  9
$TDINDWG
 40
0.0000000116
  9
$TDUSRTIMER
 40
0.0000000116
  9
$USRTIMER
 70
     1
  9
$ANGBASE
 50
0.0
  9
$ANGDIR
 70
     0
  9
$PDMODE
 70
     3
  9
$PDSIZE
 40
-0.7
  9
$PLINEWID
 40
0.0
  9
$SPLFRAME
 70
     0
  9
$SPLINETYPE
 70
     6
  9
$SPLINESEGS
 70
     8
  9
$HANDSEED
  5
35
  9
$SURFTAB1
 70
     6
  9
$SURFTAB2
 70
     6
  9
$SURFTYPE
 70
     6
  9
$SURFU
 70
     6
  9
$SURFV
 70
     6
  9
$UCSBASE
  2

  9
$UCSNAME
  2

  9
$UCSORG
 10
0.0
 20
0.0
 30
0.0
  9
$UCSXDIR
 10
1.0
 20
0.0
 30
0.0
  9
$UCSYDIR
 10
0.0
 20
1.0
 30
0.0
  9
$UCSORTHOREF
  2

  9
$UCSORTHOVIEW
 70
     0
  9
$UCSORGTOP
 10
0.0
 20
0.0
 30
0.0
  9
$UCSORGBOTTOM
 10
0.0
 20
0.0
 30
0.0
  9
$UCSORGLEFT
 10
0.0
 20
0.0
 30
0.0
  9
$UCSORGRIGHT
 10
0.0
 20
0.0
 30
0.0
  9
$UCSORGFRONT
 10
0.0
 20
0.0
 30
0.0
  9
$UCSORGBACK
 10
0.0
 20
0.0
 30
0.0
  9
$PUCSBASE
  2

  9
$PUCSNAME
  2

  9
$PUCSORG
 10
0.0
 20
0.0
 30
0.0
  9
$PUCSXDIR
 10
1.0
 20
0.0
 30
0.0
  9
$PUCSYDIR
 10
0.0
 20
1.0
 30
0.0
  9
$PUCSORTHOREF
  2

  9
$PUCSORTHOVIEW
 70
     0
  9
$PUCSORGTOP
 10
0.0
 20
0.0
 30
0.0
  9
$PUCSORGBOTTOM
 10
0.0
 20
0.0
 30
0.0
  9
$PUCSORGLEFT
 10
0.0
 20
0.0
 30
0.0
  9
$PUCSORGRIGHT
 10
0.0
 20
0.0
 30
0.0
  9
$PUCSORGFRONT
 10
0.0
 20
0.0
 30
0.0
  9
$PUCSORGBACK
 10
0.0
 20
0.0
 30
0.0
  9
$USERI1
 70
     0
  9
$USERI2
 70
     0
  9
$USERI3
 70
     0
  9
$USERI4
 70
     0
  9
$USERI5
 70
     0
  9
$USERR1
 40
0.0
  9
$USERR2
 40
0.0
  9
$USERR3
 40
0.0
  9
$USERR4
 40
0.0
  9
$USERR5
 40
0.0
  9
$WORLDVIEW
 70
     1
  9
$SHADEDGE
 70
     3
  9
$SHADEDIF
 70
    70
  9
$TILEMODE
 70
     1
  9
$MAXACTVP
 70
    64
  9
$PINSBASE
 10
0.0
 20
0.0
 30
0.0
  9
$PLIMCHECK
 70
     0
  9
$PEXTMIN
 10
1.000000E+20
 20
1.000000E+20
 30
1.000000E+20
  9
$PEXTMAX
 10
-1.000000E+20
 20
-1.000000E+20
 30
-1.000000E+20
  9
$PLIMMIN
 10
0.0
 20
0.0
  9
$PLIMMAX
 10
420.0
 20
297.0
  9
$UNITMODE
 70
     0
  9
$VISRETAIN
 70
     1
  9
$PLINEGEN
 70
     0
  9
$PSLTSCALE
 70
     1
  9
$TREEDEPTH
 70
  3020
  9
$CMLSTYLE
  2
Standard
  9
$CMLJUST
 70
     1
  9
$CMLSCALE
 40
1.0
  9
$PROXYGRAPHICS
 70
     1
  9
$MEASUREMENT
 70
     0
  9
$CELWEIGHT
370
    -1
  9
$ENDCAPS
280
     0
  9
$JOINSTYLE
280
     0
  9
$LWDISPLAY
290
     0
  9
$INSUNITS
 70
     4
  9
$HYPERLINKBASE
  1

  9
$STYLESHEET
  1

  9
$XEDIT
290
     1
  9
$CEPSNTYPE
380
     0
  9
$PSTYLEMODE
290
     1
  9
$FINGERPRINTGUID
  2
{FAEB1C30-E019-11D5-929B-00C0DF256EC4}
  9
$VERSIONGUID
  2
{FAEB1C32-E019-11D5-929B-00C0DF256EC4}
  9
$EXTNAMES
290
     1
  9
$PSVPSCALE
 40
0.0
  9
$OLESTARTUP
290
     0
  0
ENDSEC
  0
SECTION
  2
CLASSES
  0
CLASS
  1
ACDBDICTIONARYWDFLT
  2
AcDbDictionaryWithDefault
  3
ObjectDBX Classes
 90
        0
280
     0
281
     0
  0
CLASS
  1
ACDBPLACEHOLDER
  2
AcDbPlaceHolder
  3
ObjectDBX Classes
 90
        0
280
     0
281
     0
  0
CLASS
  1
LAYOUT
  2
AcDbLayout
  3
ObjectDBX Classes
 90
        0
280
     0
281
     0
  0
ENDSEC
  0
SECTION
  2
TABLES
  0
TABLE
  2
VPORT
  5
8
330
0
100
AcDbSymbolTable
 70
     2
  0
VPORT
  5
29
330
8
100
AcDbSymbolTableRecord
100
AcDbViewportTableRecord
  2
*Active
 70
     0
 10
0.0
 20
0.0
 11
1.0
 21
1.0
 12
50.0
 22
50.0
 13
0.0
 23
0.0
 14
10.0
 24
10.0
 15
10.0
 25
10.0
 16
0.0
 26
0.0
 36
1.0
 17
0.0
 27
0.0
 37
0.0
 40
103.921569
 41
1.0
 42
50.0
 43
0.0
 44
0.0
 50
0.0
 51
0.0
 71
     0
 72
   100
 73
     1
 74
     3
 75
     0
 76
     0
 77
     0
 78
     0
281
     0
 65
     1
110
0.0
120
0.0
130
0.0
111
1.0
121
0.0
131
0.0
112
0.0
122
1.0
132
0.0
 79
     0
146
0.0
  0
ENDTAB
  0
TABLE
  2
LTYPE
  5
5
330
0
100
AcDbSymbolTable
 70
     1
  0
LTYPE
  5
14
330
5
100
AcDbSymbolTableRecord
100
AcDbLinetypeTableRecord
  2
ByBlock
 70
     0
  3

 72
    65
 73
     0
 40
0.0
  0
LTYPE
  5
15
330
5
100
AcDbSymbolTableRecord
100
AcDbLinetypeTableRecord
  2
ByLayer
 70
     0
  3

 72
    65
 73
     0
 40
0.0
  0
LTYPE
  5
16
330
5
100
AcDbSymbolTableRecord
100
AcDbLinetypeTableRecord
  2
Continuous
 70
     0
  3

 72
    65
 73
     0
 40
0.0
  0
ENDTAB
  0
TABLE
  2
LAYER
  5
2
330
0
100
AcDbSymbolTable
 70
     1
  0
LAYER
  5
10
330
2
100
AcDbSymbolTableRecord
100
AcDbLayerTableRecord
  2
0
 70
     0
 62
     7
  6
Continuous
370
    -3
390
F
  0
ENDTAB
  0
TABLE
  2
STYLE
  5
3
330
0
100
AcDbSymbolTable
 70
     1
  0
STYLE
  5
11
330
3
100
AcDbSymbolTableRecord
100
AcDbTextStyleTableRecord
  2
Standard
 70
     0
 40
1.0
 41
1.0
 50
0.0
 71
     0
 42
2.5
  3
RomanS
  4

  0
ENDTAB
  0
TABLE
  2
VIEW
  5
6
330
0
100
AcDbSymbolTable
 70
     0
  0
ENDTAB
  0
TABLE
  2
UCS
  5
7
330
0
100
AcDbSymbolTable
 70
     0
  0
ENDTAB
  0
TABLE
  2
APPID
  5
9
330
0
100
AcDbSymbolTable
 70
     1
  0
APPID
  5
12
330
9
100
AcDbSymbolTableRecord
100
AcDbRegAppTableRecord
  2
ACAD
 70
     0
  0
ENDTAB
  0
TABLE
  2
DIMSTYLE
  5
A
330
0
100
AcDbSymbolTable
 70
     1
100
AcDbDimStyleTable
  0
DIMSTYLE
105
27
330
A
100
AcDbSymbolTableRecord
100
AcDbDimStyleTableRecord
  2
ISO-25
 70
     0
 41
2.5
 42
0.625
 44
1.25
 73
     0
 74
     0
 77
     1
 78
     8
 79
     2
140
2.5
141
2.5
146
0.0
147
0.625
271
     2
272
     0
273
     0
274
     0
278
    44
283
     0
289
     0
340
11
  0
ENDTAB
  0
TABLE
  2
BLOCK_RECORD
  5
1
330
0
100
AcDbSymbolTable
 70
     1
  0
BLOCK_RECORD
  5
1F
330
1
100
AcDbSymbolTableRecord
100
AcDbBlockTableRecord
  2
*Model_Space
340
22
  0
BLOCK_RECORD
  5
1B
330
1
100
AcDbSymbolTableRecord
100
AcDbBlockTableRecord
  2
*Paper_Space
340
1E
  0
BLOCK_RECORD
  5
23
330
1
100
AcDbSymbolTableRecord
100
AcDbBlockTableRecord
  2
*Paper_Space0
340
26
  0
ENDTAB
  0
ENDSEC
  0
SECTION
  2
BLOCKS
  0
BLOCK
  5
20
330
1F
100
AcDbEntity
  8
0
100
AcDbBlockBegin
  2
*Model_Space
 70
     0
 71
     0
 10
0.0
 20
0.0
 30
0.0
  3
*Model_Space
  1

  0
ENDBLK
  5
21
330
1F
100
AcDbEntity
  8
0
100
AcDbBlockEnd
  0
BLOCK
  5
1C
330
1B
100
AcDbEntity
 67
     1
  8
0
100
AcDbBlockBegin
  2
*Paper_Space
 70
     0
 71
     0
 10
0.0
 20
0.0
 30
0.0
  3
*Paper_Space
  1

  0
ENDBLK
  5
1D
330
1B
100
AcDbEntity
 67
     1
  8
0
100
AcDbBlockEnd
  0
BLOCK
  5
24
330
23
100
AcDbEntity
  8
0
100
AcDbBlockBegin
  2
*Paper_Space0
 70
     0
 71
     0
 10
0.0
 20
0.0
 30
0.0
  3
*Paper_Space0
  1

  0
ENDBLK
  5
25
330
23
100
AcDbEntity
  8
0
100
AcDbBlockEnd
  0
ENDSEC
  0
SECTION
  2
ENTITIES
  0
LWPOLYLINE
  5
2A
330
1F
100
AcDbEntity
  8
0
100
AcDbPolyline
 90
        9
 70
   128
 43
0.0
 10
-3.4
 20
-1.1
 42
0.414214
 10
-3.3
 20
-1.2
 10
3.3
 20
-1.2
 42
0.414214
 10
3.4
 20
-1.1
 10
3.4
 20
1.1
 42
0.414214
 10
3.3
 20
1.2
 10
-3.3
 20
1.2
 42
0.414214
 10
-3.4
 20
1.1
 10
-3.4
 20
-1.1
  0
LWPOLYLINE
  5
2B
330
1F
100
AcDbEntity
  8
0
100
AcDbPolyline
 90
        9
 70
   128
 43
0.0
 10
-3.25
 20
-1.0
 42
0.414214
 10
-3.2
 20
-1.05
 10
3.2
 20
-1.05
 42
0.414214
 10
3.25
 20
-1.0
 10
3.25
 20
1.0
 42
0.414214
 10
3.2
 20
1.05
 10
-3.2
 20
1.05
 42
0.414214
 10
-3.25
 20
1.0
 10
-3.25
 20
-1.0
  0
LWPOLYLINE
  5
2C
330
1F
100
AcDbEntity
  8
0
100
AcDbPolyline
 90
      131
 70
   128
 43
0.0
 10
-2.74809
 20
-0.639359
 10
-2.74809
 20
0.660641
 10
-2.171692
 20
0.660641
 10
-2.129543
 20
0.660094
 10
-2.109445
 20
0.65941
 10
-2.089998
 20
0.658452
 10
-2.071203
 20
0.657221
 10
-2.053059
 20
0.655715
 10
-2.035566
 20
0.653937
 10
-2.018724
 20
0.651884
 10
-2.002534
 20
0.649558
 10
-1.986995
 20
0.646959
 10
-1.972107
 20
0.644085
 10
-1.95787
 20
0.640938
 10
-1.944285
 20
0.637518
 10
-1.93135
 20
0.633823
 10
-1.919067
 20
0.629856
 10
-1.907435
 20
0.625614
 10
-1.896271
 20
0.621026
 10
-1.885391
 20
0.616019
 10
-1.874795
 20
0.610593
 10
-1.864482
 20
0.604747
 10
-1.854454
 20
0.598483
 10
-1.84471
 20
0.591799
 10
-1.83525
 20
0.584696
 10
-1.826074
 20
0.577174
 10
-1.817182
 20
0.569233
 10
-1.808575
 20
0.560873
 10
-1.800251
 20
0.552094
 10
-1.792211
 20
0.542895
 10
-1.784455
 20
0.533278
 10
-1.776984
 20
0.523241
 10
-1.769796
 20
0.512785
 10
-1.762892
 20
0.50191
 10
-1.756342
 20
0.490753
 10
-1.750214
 20
0.47945
 10
-1.744509
 20
0.468002
 10
-1.739227
 20
0.456408
 10
-1.734367
 20
0.444668
 10
-1.729929
 20
0.432784
 10
-1.725915
 20
0.420753
 10
-1.722323
 20
0.408578
 10
-1.719153
 20
0.396257
 10
-1.716406
 20
0.38379
 10
-1.714082
 20
0.371178
 10
-1.71218
 20
0.35842
 10
-1.710701
 20
0.345517
 10
-1.709645
 20
0.332468
 10
-1.709011
 20
0.319274
 10
-1.708799
 20
0.305935
 10
-1.709149
 20
0.288812
 10
-1.710199
 20
0.27203
 10
-1.711948
 20
0.255586
 10
-1.714397
 20
0.239482
 10
-1.717546
 20
0.223718
 10
-1.721394
 20
0.208293
 10
-1.725942
 20
0.193208
 10
-1.73119
 20
0.178462
 10
-1.737138
 20
0.164055
 10
-1.743785
 20
0.149988
 10
-1.751132
 20
0.136261
 10
-1.759179
 20
0.122873
 10
-1.767925
 20
0.109824
 10
-1.777371
 20
0.097115
 10
-1.787517
 20
0.084745
 10
-1.798363
 20
0.072715
 10
-1.809939
 20
0.061125
 10
-1.822278
 20
0.050075
 10
-1.835378
 20
0.039565
 10
-1.849241
 20
0.029596
 10
-1.863866
 20
0.020167
 10
-1.879253
 20
0.011279
 10
-1.895401
 20
0.00293
 10
-1.912312
 20
-0.004877
 10
-1.929985
 20
-0.012145
 10
-1.94842
 20
-0.018872
 10
-1.967618
 20
-0.025058
 10
-1.987577
 20
-0.030704
 10
-2.008298
 20
-0.03581
 10
-2.029781
 20
-0.040376
 10
-2.052027
 20
-0.044401
 10
-2.075034
 20
-0.047885
 10
-2.058477
 20
-0.056074
 10
-2.042944
 20
-0.064235
 10
-2.028437
 20
-0.072368
 10
-2.014956
 20
-0.080474
 10
-2.002499
 20
-0.088552
 10
-1.991068
 20
-0.096602
 10
-1.980663
 20
-0.104625
 10
-1.971282
 20
-0.112619
 10
-1.952563
 20
-0.130452
 10
-1.934094
 20
-0.149365
 10
-1.915873
 20
-0.169359
 10
-1.897902
 20
-0.190433
 10
-1.880181
 20
-0.212588
 10
-1.862709
 20
-0.235825
 10
-1.845486
 20
-0.260141
 10
-1.828513
 20
-0.285539
 10
-1.602387
 20
-0.639359
 10
-1.818759
 20
-0.639359
 10
-1.990791
 20
-0.368895
 10
-2.026816
 20
-0.313805
 10
-2.059516
 20
-0.265587
 10
-2.074618
 20
-0.244055
 10
-2.08889
 20
-0.224241
 10
-2.10233
 20
-0.206146
 10
-2.114939
 20
-0.189768
 10
-2.126972
 20
-0.174832
 10
-2.138687
 20
-0.161059
 10
-2.150084
 20
-0.14845
 10
-2.161161
 20
-0.137005
 10
-2.17192
 20
-0.126725
 10
-2.182361
 20
-0.117607
 10
-2.192482
 20
-0.109654
 10
-2.202285
 20
-0.102865
 10
-2.21195
 20
-0.096893
 10
-2.221655
 20
-0.091392
 10
-2.231403
 20
-0.086363
 10
-2.241192
 20
-0.081804
 10
-2.251023
 20
-0.077717
 10
-2.260895
 20
-0.0741
 10
-2.270809
 20
-0.070955
 10
-2.280764
 20
-0.068281
 10
-2.288662
 20
-0.066826
 10
-2.297723
 20
-0.065565
 10
-2.319338
 20
-0.063626
 10
-2.345609
 20
-0.062462
 10
-2.376535
 20
-0.062074
 10
-2.576057
 20
-0.062074
 10
-2.576057
 20
-0.639359
 10
-2.74809
 20
-0.639359
  0
LWPOLYLINE
  5
2D
330
1F
100
AcDbEntity
  8
0
100
AcDbPolyline
 90
       69
 70
   128
 43
0.0
 10
-2.576057
 20
0.086903
 10
-2.206276
 20
0.086903
 10
-2.177594
 20
0.087284
 10
-2.15052
 20
0.088427
 10
-2.125053
 20
0.090332
 10
-2.101194
 20
0.093
 10
-2.078941
 20
0.096429
 10
-2.058296
 20
0.10062
 10
-2.039259
 20
0.105574
 10
-2.030342
 20
0.108336
 10
-2.021828
 20
0.111289
 10
-2.013639
 20
0.114452
 10
-2.0057
 20
0.117843
 10
-1.99801
 20
0.121463
 10
-1.99057
 20
0.125311
 10
-1.983378
 20
0.129388
 10
-1.976437
 20
0.133694
 10
-1.969744
 20
0.138228
 10
-1.963302
 20
0.142991
 10
-1.957108
 20
0.147983
 10
-1.951164
 20
0.153203
 10
-1.945469
 20
0.158652
 10
-1.940024
 20
0.164329
 10
-1.934828
 20
0.170235
 10
-1.929881
 20
0.17637
 10
-1.925184
 20
0.182733
 10
-1.920737
 20
0.189325
 10
-1.912631
 20
0.202883
 10
-1.905606
 20
0.216731
 10
-1.899662
 20
0.230871
 10
-1.894799
 20
0.245302
 10
-1.891016
 20
0.260024
 10
-1.888314
 20
0.275036
 10
-1.886693
 20
0.29034
 10
-1.886153
 20
0.305935
 10
-1.886414
 20
0.317334
 10
-1.887199
 20
0.328478
 10
-1.888507
 20
0.339365
 10
-1.890337
 20
0.349996
 10
-1.892691
 20
0.36037
 10
-1.895568
 20
0.370488
 10
-1.898968
 20
0.38035
 10
-1.902891
 20
0.389956
 10
-1.907336
 20
0.399305
 10
-1.912305
 20
0.408398
 10
-1.917798
 20
0.417234
 10
-1.923813
 20
0.425814
 10
-1.930351
 20
0.434138
 10
-1.937412
 20
0.442206
 10
-1.944996
 20
0.450017
 10
-1.953104
 20
0.457572
 10
-1.961776
 20
0.464766
 10
-1.971054
 20
0.471497
 10
-1.980938
 20
0.477763
 10
-1.991429
 20
0.483565
 10
-2.002525
 20
0.488903
 10
-2.014228
 20
0.493777
 10
-2.026537
 20
0.498186
 10
-2.039453
 20
0.502132
 10
-2.052974
 20
0.505613
 10
-2.067102
 20
0.50863
 10
-2.081836
 20
0.511183
 10
-2.097176
 20
0.513272
 10
-2.113122
 20
0.514896
 10
-2.129674
 20
0.516057
 10
-2.146833
 20
0.516753
 10
-2.164598
 20
0.516985
 10
-2.576057
 20
0.516985
 10
-2.576057
 20
0.086903
  0
LWPOLYLINE
  5
2E
330
1F
100
AcDbEntity
  8
0
100
AcDbPolyline
 90
      172
 70
   128
 43
0.0
 10
-1.519031
 20
-0.168486
 10
-1.518463
 20
-0.136316
 10
-1.516759
 20
-0.105207
 10
-1.515481
 20
-0.090049
 10
-1.513919
 20
-0.075157
 10
-1.512072
 20
-0.06053
 10
-1.509942
 20
-0.046167
 10
-1.507528
 20
-0.03207
 10
-1.504829
 20
-0.018238
 10
-1.501847
 20
-0.00467
 10
-1.49858
 20
0.008632
 10
-1.49503
 20
0.021669
 10
-1.491195
 20
0.034442
 10
-1.487077
 20
0.046949
 10
-1.482674
 20
0.059192
 10
-1.477987
 20
0.071169
 10
-1.473016
 20
0.082882
 10
-1.467762
 20
0.094329
 10
-1.462223
 20
0.105511
 10
-1.4564
 20
0.116429
 10
-1.450293
 20
0.127081
 10
-1.443902
 20
0.137469
 10
-1.437227
 20
0.147591
 10
-1.430268
 20
0.157449
 10
-1.423025
 20
0.167041
 10
-1.415498
 20
0.176369
 10
-1.407687
 20
0.185431
 10
-1.399592
 20
0.194229
 10
-1.391212
 20
0.202761
 10
-1.382549
 20
0.211029
 10
-1.373602
 20
0.219031
 10
-1.358208
 20
0.231702
 10
-1.342399
 20
0.243556
 10
-1.326173
 20
0.254592
 10
-1.309533
 20
0.264811
 10
-1.292476
 20
0.274212
 10
-1.275004
 20
0.282795
 10
-1.257117
 20
0.290562
 10
-1.238813
 20
0.29751
 10
-1.220094
 20
0.303641
 10
-1.200959
 20
0.308955
 10
-1.181409
 20
0.313451
 10
-1.161443
 20
0.31713
 10
-1.141061
 20
0.319991
 10
-1.120263
 20
0.322035
 10
-1.09905
 20
0.323261
 10
-1.077422
 20
0.32367
 10
-1.053423
 20
0.323173
 10
-1.02998
 20
0.321682
 10
-1.00709
 20
0.319196
 10
-0.984754
 20
0.315717
 10
-0.962973
 20
0.311243
 10
-0.941746
 20
0.305775
 10
-0.921073
 20
0.299313
 10
-0.900955
 20
0.291857
 10
-0.881391
 20
0.283407
 10
-0.862381
 20
0.273962
 10
-0.843925
 20
0.263524
 10
-0.826023
 20
0.252091
 10
-0.808676
 20
0.239664
 10
-0.791883
 20
0.226243
 10
-0.775644
 20
0.211828
 10
-0.759959
 20
0.196419
 10
-0.752376
 20
0.188371
 10
-0.745033
 20
0.180133
 10
-0.737931
 20
0.171706
 10
-0.73107
 20
0.163089
 10
-0.724449
 20
0.154282
 10
-0.71807
 20
0.145286
 10
-0.711931
 20
0.1361
 10
-0.706033
 20
0.126725
 10
-0.700375
 20
0.117159
 10
-0.694958
 20
0.107404
 10
-0.689782
 20
0.09746
 10
-0.684847
 20
0.087326
 10
-0.675699
 20
0.066488
 10
-0.667514
 20
0.044893
 10
-0.660291
 20
0.022538
 10
-0.654032
 20
-0.000575
 10
-0.648736
 20
-0.024447
 10
-0.644402
 20
-0.049077
 10
-0.641032
 20
-0.074466
 10
-0.638624
 20
-0.100613
 10
-0.63718
 20
-0.127519
 10
-0.636698
 20
-0.155184
 10
-0.636912
 20
-0.177604
 10
-0.637551
 20
-0.199419
 10
-0.638616
 20
-0.220627
 10
-0.640107
 20
-0.241228
 10
-0.642024
 20
-0.261224
 10
-0.644368
 20
-0.280613
 10
-0.647137
 20
-0.299396
 10
-0.650333
 20
-0.317573
 10
-0.653954
 20
-0.335144
 10
-0.658002
 20
-0.352109
 10
-0.662475
 20
-0.368467
 10
-0.667375
 20
-0.384219
 10
-0.672701
 20
-0.399365
 10
-0.678453
 20
-0.413905
 10
-0.684631
 20
-0.427839
 10
-0.691235
 20
-0.441166
 10
-0.698246
 20
-0.454009
 10
-0.705645
 20
-0.466488
 10
-0.713432
 20
-0.478603
 10
-0.721606
 20
-0.490354
 10
-0.730169
 20
-0.501742
 10
-0.73912
 20
-0.512766
 10
-0.748459
 20
-0.523426
 10
-0.758186
 20
-0.533723
 10
-0.7683
 20
-0.543656
 10
-0.778803
 20
-0.553225
 10
-0.789693
 20
-0.56243
 10
-0.800972
 20
-0.571272
 10
-0.812639
 20
-0.57975
 10
-0.824693
 20
-0.587864
 10
-0.837135
 20
-0.595615
 10
-0.849966
 20
-0.603001
 10
-0.863065
 20
-0.609981
 10
-0.876313
 20
-0.616511
 10
-0.889709
 20
-0.62259
 10
-0.903255
 20
-0.628219
 10
-0.91695
 20
-0.633397
 10
-0.930793
 20
-0.638126
 10
-0.944786
 20
-0.642404
 10
-0.958927
 20
-0.646231
 10
-0.973218
 20
-0.649609
 10
-0.987657
 20
-0.652536
 10
-1.002246
 20
-0.655012
 10
-1.016983
 20
-0.657039
 10
-1.031869
 20
-0.658615
 10
-1.046904
 20
-0.659741
 10
-1.062088
 20
-0.660416
 10
-1.077422
 20
-0.660641
 10
-1.101844
 20
-0.660146
 10
-1.125674
 20
-0.65866
 10
-1.148912
 20
-0.656183
 10
-1.171557
 20
-0.652716
 10
-1.193611
 20
-0.648258
 10
-1.215071
 20
-0.642809
 10
-1.23594
 20
-0.636369
 10
-1.256216
 20
-0.628939
 10
-1.2759
 20
-0.620518
 10
-1.294991
 20
-0.611107
 10
-1.31349
 20
-0.600705
 10
-1.331397
 20
-0.589312
 10
-1.348712
 20
-0.576928
 10
-1.365434
 20
-0.563554
 10
-1.381563
 20
-0.549189
 10
-1.397101
 20
-0.533834
 10
-1.404603
 20
-0.525799
 10
-1.411866
 20
-0.517546
 10
-1.418891
 20
-0.509075
 10
-1.425678
 20
-0.500386
 10
-1.432227
 20
-0.491478
 10
-1.438538
 20
-0.482353
 10
-1.444611
 20
-0.473009
 10
-1.450446
 20
-0.463446
 10
-1.456042
 20
-0.453666
 10
-1.4614
 20
-0.443667
 10
-1.46652
 20
-0.433451
 10
-1.471402
 20
-0.423015
 10
-1.476046
 20
-0.412362
 10
-1.480452
 20
-0.401491
 10
-1.488549
 20
-0.379093
 10
-1.495693
 20
-0.355822
 10
-1.501885
 20
-0.331678
 10
-1.507124
 20
-0.306662
 10
-1.511411
 20
-0.280773
 10
-1.514745
 20
-0.25401
 10
-1.517126
 20
-0.226375
 10
-1.518555
 20
-0.197867
 10
-1.519031
 20
-0.168486
  0
LWPOLYLINE
  5
2F
330
1F
100
AcDbEntity
  8
0
100
AcDbPolyline
 90
      129
 70
   128
 43
0.0
 10
-1.35498
 20
-0.168486
 10
-1.354671
 20
-0.190743
 10
-1.353746
 20
-0.212291
 10
-1.352205
 20
-0.233128
 10
-1.350047
 20
-0.253255
 10
-1.347272
 20
-0.272672
 10
-1.343881
 20
-0.291379
 10
-1.339873
 20
-0.309376
 10
-1.335249
 20
-0.326663
 10
-1.330008
 20
-0.343239
 10
-1.324151
 20
-0.359106
 10
-1.317676
 20
-0.374262
 10
-1.310586
 20
-0.388709
 10
-1.302879
 20
-0.402445
 10
-1.294555
 20
-0.415471
 10
-1.285614
 20
-0.427787
 10
-1.276057
 20
-0.439393
 10
-1.266033
 20
-0.450292
 10
-1.255689
 20
-0.460488
 10
-1.245027
 20
-0.469981
 10
-1.234047
 20
-0.478771
 10
-1.222747
 20
-0.486857
 10
-1.211129
 20
-0.494241
 10
-1.199193
 20
-0.500921
 10
-1.186937
 20
-0.506898
 10
-1.174363
 20
-0.512172
 10
-1.16147
 20
-0.516743
 10
-1.148259
 20
-0.52061
 10
-1.134729
 20
-0.523774
 10
-1.12088
 20
-0.526235
 10
-1.106713
 20
-0.527993
 10
-1.092226
 20
-0.529048
 10
-1.077422
 20
-0.5294
 10
-1.062724
 20
-0.529046
 10
-1.048338
 20
-0.527986
 10
-1.034264
 20
-0.52622
 10
-1.020502
 20
-0.523747
 10
-1.007052
 20
-0.520567
 10
-0.993913
 20
-0.51668
 10
-0.981086
 20
-0.512087
 10
-0.968571
 20
-0.506787
 10
-0.956368
 20
-0.500781
 10
-0.944476
 20
-0.494068
 10
-0.932896
 20
-0.486648
 10
-0.921628
 20
-0.478521
 10
-0.910671
 20
-0.469688
 10
-0.900027
 20
-0.460149
 10
-0.889694
 20
-0.449902
 10
-0.879673
 20
-0.43895
 10
-0.870116
 20
-0.427273
 10
-0.861175
 20
-0.414854
 10
-0.852851
 20
-0.401695
 10
-0.845144
 20
-0.387794
 10
-0.838053
 20
-0.373152
 10
-0.831579
 20
-0.357769
 10
-0.825722
 20
-0.341644
 10
-0.820481
 20
-0.324778
 10
-0.815857
 20
-0.307171
 10
-0.811849
 20
-0.288823
 10
-0.808458
 20
-0.269733
 10
-0.805683
 20
-0.249902
 10
-0.803525
 20
-0.22933
 10
-0.801984
 20
-0.208016
 10
-0.801059
 20
-0.185961
 10
-0.80075
 20
-0.163165
 10
-0.80106
 20
-0.141659
 10
-0.80199
 20
-0.120815
 10
-0.803541
 20
-0.100632
 10
-0.805711
 20
-0.081111
 10
-0.808501
 20
-0.062252
 10
-0.811911
 20
-0.044054
 10
-0.815941
 20
-0.026518
 10
-0.820592
 20
-0.009644
 10
-0.825862
 20
0.006569
 10
-0.831753
 20
0.022121
 10
-0.838263
 20
0.03701
 10
-0.845394
 20
0.051238
 10
-0.853144
 20
0.064805
 10
-0.861515
 20
0.07771
 10
-0.870505
 20
0.089953
 10
-0.880116
 20
0.101535
 10
-0.890187
 20
0.112434
 10
-0.90056
 20
0.12263
 10
-0.911234
 20
0.132123
 10
-0.92221
 20
0.140913
 10
-0.933487
 20
0.148999
 10
-0.945065
 20
0.156383
 10
-0.956944
 20
0.163063
 10
-0.969125
 20
0.16904
 10
-0.981607
 20
0.174314
 10
-0.994391
 20
0.178884
 10
-1.007476
 20
0.182752
 10
-1.020862
 20
0.185916
 10
-1.03455
 20
0.188377
 10
-1.048539
 20
0.190135
 10
-1.06283
 20
0.19119
 10
-1.077422
 20
0.191542
 10
-1.092226
 20
0.191192
 10
-1.106713
 20
0.190142
 10
-1.12088
 20
0.188393
 10
-1.134729
 20
0.185944
 10
-1.148259
 20
0.182795
 10
-1.16147
 20
0.178947
 10
-1.174363
 20
0.174399
 10
-1.186937
 20
0.169151
 10
-1.199193
 20
0.163203
 10
-1.211129
 20
0.156556
 10
-1.222747
 20
0.149209
 10
-1.234047
 20
0.141162
 10
-1.245027
 20
0.132416
 10
-1.255689
 20
0.12297
 10
-1.266033
 20
0.112824
 10
-1.276057
 20
0.101978
 10
-1.285614
 20
0.090426
 10
-1.294555
 20
0.07816
 10
-1.302879
 20
0.065181
 10
-1.310586
 20
0.051488
 10
-1.317676
 20
0.037081
 10
-1.324151
 20
0.021961
 10
-1.330008
 20
0.006128
 10
-1.335249
 20
-0.01042
 10
-1.339873
 20
-0.02768
 10
-1.343881
 20
-0.045655
 10
-1.347272
 20
-0.064343
 10
-1.350047
 20
-0.083744
 10
-1.352205
 20
-0.103859
 10
-1.353746
 20
-0.124688
 10
-1.354671
 20
-0.14623
 10
-1.35498
 20
-0.168486
  0
LWPOLYLINE
  5
30
330
1F
100
AcDbEntity
  8
0
100
AcDbPolyline
 90
      280
 70
   128
 43
0.0
 10
0.164939
 20
-0.294407
 10
0.321896
 20
-0.314802
 10
0.318368
 20
-0.334812
 10
0.314213
 20
-0.35427
 10
0.309431
 20
-0.373178
 10
0.304022
 20
-0.391535
 10
0.297987
 20
-0.409342
 10
0.291324
 20
-0.426597
 10
0.284034
 20
-0.443302
 10
0.276117
 20
-0.459456
 10
0.267573
 20
-0.475059
 10
0.258402
 20
-0.490112
 10
0.248605
 20
-0.504614
 10
0.23818
 20
-0.518565
 10
0.227128
 20
-0.531965
 10
0.21545
 20
-0.544814
 10
0.203144
 20
-0.557113
 10
0.190211
 20
-0.568861
 10
0.176777
 20
-0.579975
 10
0.162964
 20
-0.590372
 10
0.148774
 20
-0.600052
 10
0.134207
 20
-0.609015
 10
0.119261
 20
-0.617261
 10
0.103939
 20
-0.624789
 10
0.088238
 20
-0.631601
 10
0.072161
 20
-0.637696
 10
0.055705
 20
-0.643074
 10
0.038872
 20
-0.647735
 10
0.021662
 20
-0.651678
 10
0.004074
 20
-0.654905
 10
-0.013892
 20
-0.657415
 10
-0.032235
 20
-0.659207
 10
-0.050956
 20
-0.660283
 10
-0.070055
 20
-0.660641
 10
-0.093923
 20
-0.660148
 10
-0.117199
 20
-0.658667
 10
-0.139882
 20
-0.656199
 10
-0.161973
 20
-0.652743
 10
-0.183472
 20
-0.648301
 10
-0.204379
 20
-0.642871
 10
-0.224693
 20
-0.636454
 10
-0.244415
 20
-0.62905
 10
-0.263545
 20
-0.620659
 10
-0.282082
 20
-0.61128
 10
-0.300027
 20
-0.600914
 10
-0.317379
 20
-0.589561
 10
-0.33414
 20
-0.577221
 10
-0.350307
 20
-0.563894
 10
-0.365883
 20
-0.549579
 10
-0.380866
 20
-0.534277
 10
-0.388095
 20
-0.526272
 10
-0.395094
 20
-0.518054
 10
-0.401864
 20
-0.509621
 10
-0.408405
 20
-0.500975
 10
-0.414715
 20
-0.492114
 10
-0.420797
 20
-0.48304
 10
-0.426649
 20
-0.473752
 10
-0.432271
 20
-0.46425
 10
-0.437664
 20
-0.454534
 10
-0.442827
 20
-0.444604
 10
-0.452466
 20
-0.424103
 10
-0.461186
 20
-0.402746
 10
-0.468989
 20
-0.380534
 10
-0.475873
 20
-0.357466
 10
-0.48184
 20
-0.333542
 10
-0.486889
 20
-0.308763
 10
-0.491019
 20
-0.283128
 10
-0.494232
 20
-0.256638
 10
-0.496527
 20
-0.229292
 10
-0.497904
 20
-0.20109
 10
-0.498363
 20
-0.172033
 10
-0.498165
 20
-0.153116
 10
-0.497573
 20
-0.134498
 10
-0.496586
 20
-0.116177
 10
-0.495204
 20
-0.098154
 10
-0.493427
 20
-0.080429
 10
-0.491255
 20
-0.063002
 10
-0.488688
 20
-0.045873
 10
-0.485726
 20
-0.029042
 10
-0.48237
 20
-0.012508
 10
-0.478618
 20
0.003727
 10
-0.474472
 20
0.019665
 10
-0.469931
 20
0.035304
 10
-0.464995
 20
0.050646
 10
-0.459664
 20
0.06569
 10
-0.453938
 20
0.080436
 10
-0.447817
 20
0.094884
 10
-0.441293
 20
0.10896
 10
-0.434356
 20
0.122589
 10
-0.427008
 20
0.135771
 10
-0.419247
 20
0.148506
 10
-0.411074
 20
0.160794
 10
-0.402488
 20
0.172635
 10
-0.393491
 20
0.18403
 10
-0.384081
 20
0.194978
 10
-0.374259
 20
0.205479
 10
-0.364025
 20
0.215533
 10
-0.353378
 20
0.22514
 10
-0.34232
 20
0.2343
 10
-0.330849
 20
0.243014
 10
-0.318966
 20
0.251281
 10
-0.306671
 20
0.2591
 10
-0.293963
 20
0.266473
 10
-0.280979
 20
0.2734
 10
-0.267852
 20
0.279879
 10
-0.254583
 20
0.285911
 10
-0.241173
 20
0.291497
 10
-0.22762
 20
0.296636
 10
-0.213926
 20
0.301327
 10
-0.200089
 20
0.305573
 10
-0.18611
 20
0.309371
 10
-0.171989
 20
0.312722
 10
-0.157727
 20
0.315627
 10
-0.143322
 20
0.318084
 10
-0.128775
 20
0.320095
 10
-0.114086
 20
0.321659
 10
-0.099256
 20
0.322776
 10
-0.084283
 20
0.323446
 10
-0.069168
 20
0.32367
 10
-0.05021
 20
0.323367
 10
-0.031688
 20
0.322457
 10
-0.013603
 20
0.320942
 10
0.004046
 20
0.31882
 10
0.021258
 20
0.316092
 10
0.038034
 20
0.312758
 10
0.054373
 20
0.308818
 10
0.070276
 20
0.304272
 10
0.085743
 20
0.299119
 10
0.100773
 20
0.29336
 10
0.115366
 20
0.286995
 10
0.129523
 20
0.280024
 10
0.143244
 20
0.272447
 10
0.156528
 20
0.264263
 10
0.169376
 20
0.255474
 10
0.181787
 20
0.246078
 10
0.193707
 20
0.236124
 10
0.205079
 20
0.225661
 10
0.215903
 20
0.214689
 10
0.226181
 20
0.203208
 10
0.235911
 20
0.191218
 10
0.245094
 20
0.178718
 10
0.25373
 20
0.165709
 10
0.261818
 20
0.152191
 10
0.269359
 20
0.138164
 10
0.276353
 20
0.123628
 10
0.282799
 20
0.108582
 10
0.288698
 20
0.093027
 10
0.29405
 20
0.076963
 10
0.298854
 20
0.06039
 10
0.303111
 20
0.043308
 10
0.306821
 20
0.025716
 10
0.151637
 20
0.001774
 10
0.148733
 20
0.01345
 10
0.145561
 20
0.02476
 10
0.142123
 20
0.035703
 10
0.138419
 20
0.046278
 10
0.134447
 20
0.056486
 10
0.130209
 20
0.066327
 10
0.125704
 20
0.075801
 10
0.120933
 20
0.084908
 10
0.115895
 20
0.093647
 10
0.11059
 20
0.10202
 10
0.105018
 20
0.110025
 10
0.099179
 20
0.117663
 10
0.093074
 20
0.124934
 10
0.086702
 20
0.131837
 10
0.080064
 20
0.138374
 10
0.073158
 20
0.144543
 10
0.066028
 20
0.150342
 10
0.058714
 20
0.155766
 10
0.051216
 20
0.160817
 10
0.043535
 20
0.165493
 10
0.03567
 20
0.169795
 10
0.027621
 20
0.173723
 10
0.019389
 20
0.177277
 10
0.010974
 20
0.180457
 10
0.002375
 20
0.183263
 10
-0.006408
 20
0.185694
 10
-0.015375
 20
0.187752
 10
-0.024525
 20
0.189436
 10
-0.033858
 20
0.190745
 10
-0.043375
 20
0.19168
 10
-0.053076
 20
0.192241
 10
-0.06296
 20
0.192428
 10
-0.077859
 20
0.192091
 10
-0.092404
 20
0.191077
 10
-0.106596
 20
0.189389
 10
-0.120434
 20
0.187025
 10
-0.133919
 20
0.183985
 10
-0.147051
 20
0.18027
 10
-0.159829
 20
0.175879
 10
-0.172254
 20
0.170813
 10
-0.184326
 20
0.165072
 10
-0.196045
 20
0.158655
 10
-0.20741
 20
0.151563
 10
-0.218422
 20
0.143795
 10
-0.22908
 20
0.135351
 10
-0.239385
 20
0.126233
 10
-0.249337
 20
0.116438
 10
-0.258936
 20
0.105969
 10
-0.268063
 20
0.094768
 10
-0.276602
 20
0.082781
 10
-0.284552
 20
0.070008
 10
-0.291913
 20
0.056448
 10
-0.298685
 20
0.042102
 10
-0.304868
 20
0.02697
 10
-0.310462
 20
0.011052
 10
-0.315467
 20
-0.005653
 10
-0.319884
 20
-0.023144
 10
-0.323711
 20
-0.041422
 10
-0.32695
 20
-0.060485
 10
-0.3296
 20
-0.080336
 10
-0.331661
 20
-0.100972
 10
-0.333133
 20
-0.122395
 10
-0.334017
 20
-0.144604
 10
-0.334311
 20
-0.167599
 10
-0.334027
 20
-0.190915
 10
-0.333175
 20
-0.21342
 10
-0.331755
 20
-0.235114
 10
-0.329766
 20
-0.255998
 10
-0.32721
 20
-0.276072
 10
-0.324086
 20
-0.295335
 10
-0.320393
 20
-0.313787
 10
-0.316132
 20
-0.331429
 10
-0.311304
 20
-0.34826
 10
-0.305907
 20
-0.364281
 10
-0.299942
 20
-0.379491
 10
-0.293409
 20
-0.393891
 10
-0.286308
 20
-0.40748
 10
-0.278639
 20
-0.420258
 10
-0.270401
 20
-0.432226
 10
-0.261596
 20
-0.443383
 10
-0.252334
 20
-0.453799
 10
-0.242725
 20
-0.463543
 10
-0.232769
 20
-0.472615
 10
-0.222468
 20
-0.481016
 10
-0.211819
 20
-0.488744
 10
-0.200825
 20
-0.4958
 10
-0.189484
 20
-0.502184
 10
-0.177797
 20
-0.507896
 10
-0.165763
 20
-0.512936
 10
-0.153383
 20
-0.517304
 10
-0.140656
 20
-0.521
 10
-0.127584
 20
-0.524024
 10
-0.114164
 20
-0.526376
 10
-0.100399
 20
-0.528056
 10
-0.086287
 20
-0.529064
 10
-0.071828
 20
-0.5294
 10
-0.0602
 20
-0.529175
 10
-0.048814
 20
-0.528499
 10
-0.03767
 20
-0.527373
 10
-0.026769
 20
-0.525797
 10
-0.016111
 20
-0.523771
 10
-0.005695
 20
-0.521294
 10
0.004479
 20
-0.518367
 10
0.01441
 20
-0.51499
 10
0.024099
 20
-0.511162
 10
0.033545
 20
-0.506884
 10
0.042748
 20
-0.502156
 10
0.05171
 20
-0.496977
 10
0.060428
 20
-0.491348
 10
0.068905
 20
-0.485269
 10
0.077138
 20
-0.47874
 10
0.08513
 20
-0.47176
 10
0.09282
 20
-0.464312
 10
0.100149
 20
-0.45638
 10
0.107119
 20
-0.447963
 10
0.113728
 20
-0.43906
 10
0.119977
 20
-0.429673
 10
0.125865
 20
-0.419801
 10
0.131394
 20
-0.409444
 10
0.136562
 20
-0.398602
 10
0.14137
 20
-0.387275
 10
0.145818
 20
-0.375463
 10
0.149905
 20
-0.363166
 10
0.153632
 20
-0.350384
 10
0.156999
 20
-0.337117
 10
0.160006
 20
-0.323365
 10
0.162652
 20
-0.309128
 10
0.164939
 20
-0.294407
  0
LWPOLYLINE
  5
31
330
1F
100
AcDbEntity
  8
0
100
AcDbPolyline
 90
       13
 70
   128
 43
0.0
 10
0.459345
 20
-0.639359
 10
0.459345
 20
0.660641
 10
0.618963
 20
0.660641
 10
0.618963
 20
-0.080696
 10
0.996726
 20
0.302387
 10
1.203342
 20
0.302387
 10
0.843315
 20
-0.046999
 10
1.2397
 20
-0.639359
 10
1.042838
 20
-0.639359
 10
0.731583
 20
-0.157844
 10
0.618963
 20
-0.26603
 10
0.618963
 20
-0.639359
 10
0.459345
 20
-0.639359
  0
LWPOLYLINE
  5
32
330
1F
100
AcDbEntity
  8
0
100
AcDbPolyline
 90
      214
 70
   128
 43
0.0
 10
2.011187
 20
-0.336085
 10
2.176126
 20
-0.35648
 10
2.170988
 20
-0.374295
 10
2.165332
 20
-0.391604
 10
2.159156
 20
-0.408408
 10
2.15246
 20
-0.424706
 10
2.145245
 20
-0.440498
 10
2.13751
 20
-0.455784
 10
2.129255
 20
-0.470565
 10
2.120481
 20
-0.48484
 10
2.111187
 20
-0.498609
 10
2.101374
 20
-0.511872
 10
2.091041
 20
-0.52463
 10
2.080188
 20
-0.536882
 10
2.068816
 20
-0.548628
 10
2.056925
 20
-0.559868
 10
2.044513
 20
-0.570603
 10
2.031583
 20
-0.580832
 10
2.018163
 20
-0.590497
 10
2.004287
 20
-0.599537
 10
1.989953
 20
-0.607955
 10
1.975162
 20
-0.615749
 10
1.959914
 20
-0.622919
 10
1.944208
 20
-0.629466
 10
1.928046
 20
-0.635389
 10
1.911426
 20
-0.640689
 10
1.894348
 20
-0.645365
 10
1.876814
 20
-0.649418
 10
1.858822
 20
-0.652847
 10
1.840373
 20
-0.655653
 10
1.821467
 20
-0.657835
 10
1.802104
 20
-0.659394
 10
1.782283
 20
-0.660329
 10
1.762005
 20
-0.660641
 10
1.736513
 20
-0.660144
 10
1.711688
 20
-0.658653
 10
1.687533
 20
-0.656168
 10
1.664045
 20
-0.652688
 10
1.641227
 20
-0.648214
 10
1.619077
 20
-0.642747
 10
1.597595
 20
-0.636285
 10
1.576782
 20
-0.628828
 10
1.556638
 20
-0.620378
 10
1.537162
 20
-0.610934
 10
1.518354
 20
-0.600495
 10
1.500215
 20
-0.589063
 10
1.482745
 20
-0.576636
 10
1.465943
 20
-0.563215
 10
1.44981
 20
-0.548799
 10
1.434345
 20
-0.53339
 10
1.426898
 20
-0.525337
 10
1.419688
 20
-0.517084
 10
1.412713
 20
-0.50863
 10
1.405976
 20
-0.499977
 10
1.399474
 20
-0.491124
 10
1.393209
 20
-0.48207
 10
1.387181
 20
-0.472817
 10
1.381389
 20
-0.463363
 10
1.375833
 20
-0.45371
 10
1.370514
 20
-0.443856
 10
1.365431
 20
-0.433803
 10
1.360584
 20
-0.423549
 10
1.3516
 20
-0.402441
 10
1.343562
 20
-0.380534
 10
1.33647
 20
-0.357826
 10
1.330323
 20
-0.334318
 10
1.325122
 20
-0.31001
 10
1.320867
 20
-0.284902
 10
1.317557
 20
-0.258993
 10
1.315193
 20
-0.232284
 10
1.313774
 20
-0.204776
 10
1.313302
 20
-0.176467
 10
1.31378
 20
-0.147176
 10
1.315214
 20
-0.118716
 10
1.317604
 20
-0.091088
 10
1.32095
 20
-0.064291
 10
1.325252
 20
-0.038325
 10
1.33051
 20
-0.013191
 10
1.336725
 20
0.011112
 10
1.343895
 20
0.034584
 10
1.352021
 20
0.057224
 10
1.356443
 20
0.068233
 10
1.361104
 20
0.079033
 10
1.366004
 20
0.089626
 10
1.371142
 20
0.100011
 10
1.37652
 20
0.110188
 10
1.382137
 20
0.120157
 10
1.387993
 20
0.129918
 10
1.394087
 20
0.139472
 10
1.400421
 20
0.148817
 10
1.406994
 20
0.157955
 10
1.413806
 20
0.166885
 10
1.420857
 20
0.175608
 10
1.428146
 20
0.184122
 10
1.435675
 20
0.192428
 10
1.451256
 20
0.208321
 10
1.467405
 20
0.223188
 10
1.484122
 20
0.23703
 10
1.501407
 20
0.249847
 10
1.51926
 20
0.261638
 10
1.537681
 20
0.272404
 10
1.55667
 20
0.282144
 10
1.576228
 20
0.290859
 10
1.596353
 20
0.298549
 10
1.617047
 20
0.305214
 10
1.638308
 20
0.310853
 10
1.660138
 20
0.315467
 10
1.682536
 20
0.319056
 10
1.705502
 20
0.321619
 10
1.729036
 20
0.323157
 10
1.753138
 20
0.32367
 10
1.776478
 20
0.323168
 10
1.799277
 20
0.321661
 10
1.821537
 20
0.319149
 10
1.843255
 20
0.315634
 10
1.864434
 20
0.311113
 10
1.885072
 20
0.305588
 10
1.90517
 20
0.299059
 10
1.924727
 20
0.291525
 10
1.943744
 20
0.282986
 10
1.962221
 20
0.273443
 10
1.980157
 20
0.262895
 10
1.997553
 20
0.251343
 10
2.014408
 20
0.238786
 10
2.030723
 20
0.225225
 10
2.046498
 20
0.210659
 10
2.061733
 20
0.195089
 10
2.069098
 20
0.18695
 10
2.076229
 20
0.178607
 10
2.083127
 20
0.17006
 10
2.08979
 20
0.161308
 10
2.09622
 20
0.152352
 10
2.102416
 20
0.143192
 10
2.108379
 20
0.133827
 10
2.114107
 20
0.124258
 10
2.119602
 20
0.114485
 10
2.124863
 20
0.104507
 10
2.134683
 20
0.083938
 10
2.143568
 20
0.062552
 10
2.151518
 20
0.040348
 10
2.158532
 20
0.017327
 10
2.164611
 20
-0.006512
 10
2.169755
 20
-0.031168
 10
2.173964
 20
-0.056642
 10
2.177237
 20
-0.082933
 10
2.179576
 20
-0.110042
 10
2.180978
 20
-0.137968
 10
2.181446
 20
-0.166712
 10
2.180559
 20
-0.209277
 10
1.47824
 20
-0.209277
 10
1.479622
 20
-0.228391
 10
1.481552
 20
-0.246937
 10
1.484028
 20
-0.264915
 10
1.487052
 20
-0.282324
 10
1.490624
 20
-0.299166
 10
1.494742
 20
-0.31544
 10
1.499408
 20
-0.331145
 10
1.504621
 20
-0.346282
 10
1.510382
 20
-0.360852
 10
1.51669
 20
-0.374853
 10
1.523545
 20
-0.388286
 10
1.530947
 20
-0.401151
 10
1.538897
 20
-0.413448
 10
1.547394
 20
-0.425177
 10
1.556438
 20
-0.436338
 10
1.56603
 20
-0.44693
 10
1.576048
 20
-0.456917
 10
1.58637
 20
-0.466259
 10
1.596998
 20
-0.474957
 10
1.60793
 20
-0.483011
 10
1.619167
 20
-0.49042
 10
1.630709
 20
-0.497185
 10
1.642555
 20
-0.503306
 10
1.654707
 20
-0.508782
 10
1.667163
 20
-0.513615
 10
1.679924
 20
-0.517802
 10
1.69299
 20
-0.521346
 10
1.706361
 20
-0.524245
 10
1.720036
 20
-0.5265
 10
1.734017
 20
-0.528111
 10
1.748302
 20
-0.529078
 10
1.762892
 20
-0.5294
 10
1.773766
 20
-0.52922
 10
1.784438
 20
-0.528679
 10
1.794909
 20
-0.527779
 10
1.80518
 20
-0.526518
 10
1.81525
 20
-0.524897
 10
1.825118
 20
-0.522915
 10
1.834786
 20
-0.520574
 10
1.844253
 20
-0.517872
 10
1.853519
 20
-0.51481
 10
1.862584
 20
-0.511387
 10
1.871448
 20
-0.507605
 10
1.880112
 20
-0.503462
 10
1.888574
 20
-0.498959
 10
1.896836
 20
-0.494095
 10
1.904896
 20
-0.488872
 10
1.912756
 20
-0.483288
 10
1.920415
 20
-0.477309
 10
1.927872
 20
-0.470901
 10
1.935129
 20
-0.464063
 10
1.942185
 20
-0.456796
 10
1.94904
 20
-0.449099
 10
1.955695
 20
-0.440972
 10
1.962148
 20
-0.432417
 10
1.9684
 20
-0.423431
 10
1.974452
 20
-0.414016
 10
1.980302
 20
-0.404172
 10
1.985952
 20
-0.393898
 10
1.991401
 20
-0.383194
 10
1.996649
 20
-0.372061
 10
2.001696
 20
-0.360498
 10
2.006542
 20
-0.348506
 10
2.011187
 20
-0.336085
  0
LWPOLYLINE
  5
33
330
1F
100
AcDbEntity
  8
0
100
AcDbPolyline
 90
       66
 70
   128
 43
0.0
 10
1.487108
 20
-0.078035
 10
2.01296
 20
-0.078035
 10
2.011478
 20
-0.063414
 10
2.00969
 20
-0.049257
 10
2.007598
 20
-0.035564
 10
2.005201
 20
-0.022335
 10
2.002499
 20
-0.009571
 10
1.999493
 20
0.00273
 10
1.996181
 20
0.014566
 10
1.992565
 20
0.025938
 10
1.988644
 20
0.036846
 10
1.984418
 20
0.04729
 10
1.979887
 20
0.057269
 10
1.975051
 20
0.066785
 10
1.969911
 20
0.075836
 10
1.964465
 20
0.084423
 10
1.958715
 20
0.092546
 10
1.95266
 20
0.100205
 10
1.942951
 20
0.111372
 10
1.932888
 20
0.12182
 10
1.922472
 20
0.131546
 10
1.911703
 20
0.140553
 10
1.90058
 20
0.148838
 10
1.889104
 20
0.156403
 10
1.877275
 20
0.163248
 10
1.865092
 20
0.169372
 10
1.852556
 20
0.174776
 10
1.839667
 20
0.179459
 10
1.826424
 20
0.183422
 10
1.812828
 20
0.186664
 10
1.798879
 20
0.189186
 10
1.784576
 20
0.190987
 10
1.769921
 20
0.192068
 10
1.754911
 20
0.192428
 10
1.741303
 20
0.192141
 10
1.727969
 20
0.191278
 10
1.714908
 20
0.189841
 10
1.702121
 20
0.187828
 10
1.689608
 20
0.185241
 10
1.677368
 20
0.182078
 10
1.665402
 20
0.178341
 10
1.653709
 20
0.174028
 10
1.64229
 20
0.16914
 10
1.631145
 20
0.163678
 10
1.620273
 20
0.15764
 10
1.609676
 20
0.151027
 10
1.599351
 20
0.14384
 10
1.589301
 20
0.136077
 10
1.579524
 20
0.127739
 10
1.57002
 20
0.118827
 10
1.560916
 20
0.109433
 10
1.552334
 20
0.09965
 10
1.544275
 20
0.08948
 10
1.536739
 20
0.078922
 10
1.529726
 20
0.067976
 10
1.523237
 20
0.056642
 10
1.51727
 20
0.04492
 10
1.511826
 20
0.03281
 10
1.506906
 20
0.020313
 10
1.502508
 20
0.007427
 10
1.498634
 20
-0.005847
 10
1.495283
 20
-0.019509
 10
1.492454
 20
-0.033559
 10
1.490149
 20
-0.047996
 10
1.488367
 20
-0.062822
 10
1.487108
 20
-0.078035
  0
LWPOLYLINE
  5
34
330
1F
100
AcDbEntity
  8
0
100
AcDbPolyline
 90
       76
 70
   128
 43
0.0
 10
2.725034
 20
-0.496589
 10
2.74809
 20
-0.637585
 10
2.731463
 20
-0.640911
 10
2.71528
 20
-0.643793
 10
2.69954
 20
-0.646231
 10
2.684243
 20
-0.648226
 10
2.669389
 20
-0.649778
 10
2.65498
 20
-0.650887
 10
2.641013
 20
-0.651552
 10
2.62749
 20
-0.651774
 10
2.606374
 20
-0.651344
 10
2.586477
 20
-0.650055
 10
2.567799
 20
-0.647908
 10
2.550341
 20
-0.644901
 10
2.534102
 20
-0.641035
 10
2.519083
 20
-0.636311
 10
2.51203
 20
-0.633626
 10
2.505282
 20
-0.630727
 10
2.498839
 20
-0.627613
 10
2.492701
 20
-0.624284
 10
2.481173
 20
-0.617141
 10
2.470532
 20
-0.609458
 10
2.460778
 20
-0.601235
 10
2.45191
 20
-0.592471
 10
2.443929
 20
-0.583167
 10
2.436835
 20
-0.573322
 10
2.430628
 20
-0.562938
 10
2.425307
 20
-0.552012
 10
2.422945
 20
-0.546028
 10
2.420735
 20
-0.539272
 10
2.418677
 20
-0.531743
 10
2.416772
 20
-0.523442
 10
2.413419
 20
-0.504522
 10
2.410675
 20
-0.482512
 10
2.408542
 20
-0.457412
 10
2.407017
 20
-0.429223
 10
2.406103
 20
-0.397943
 10
2.405798
 20
-0.363574
 10
2.405798
 20
0.17824
 10
2.288745
 20
0.17824
 10
2.288745
 20
0.302387
 10
2.405798
 20
0.302387
 10
2.405798
 20
0.535607
 10
2.564529
 20
0.631378
 10
2.564529
 20
0.302387
 10
2.725034
 20
0.302387
 10
2.725034
 20
0.17824
 10
2.564529
 20
0.17824
 10
2.564529
 20
-0.372442
 10
2.565056
 20
-0.403534
 10
2.565714
 20
-0.416794
 10
2.566635
 20
-0.42853
 10
2.56782
 20
-0.438742
 10
2.569268
 20
-0.447429
 10
2.570979
 20
-0.454593
 10
2.572954
 20
-0.460232
 10
2.575226
 20
-0.464984
 10
2.577831
 20
-0.469488
 10
2.580768
 20
-0.473741
 10
2.584038
 20
-0.477746
 10
2.587641
 20
-0.4815
 10
2.591576
 20
-0.485006
 10
2.595843
 20
-0.488262
 10
2.600443
 20
-0.491269
 10
2.605466
 20
-0.493971
 10
2.611001
 20
-0.496312
 10
2.617049
 20
-0.498294
 10
2.62361
 20
-0.499915
 10
2.630684
 20
-0.501176
 10
2.63827
 20
-0.502076
 10
2.646368
 20
-0.502617
 10
2.65498
 20
-0.502797
 10
2.669334
 20
-0.502409
 10
2.685795
 20
-0.501245
 10
2.704361
 20
-0.499305
 10
2.725034
 20
-0.496589
  0
ENDSEC
  0
SECTION
  2
OBJECTS
  0
DICTIONARY
  5
C
330
0
100
AcDbDictionary
281
     1
  3
ACAD_GROUP
350
D
  3
ACAD_LAYOUT
350
1A
  3
ACAD_MLINESTYLE
350
17
  3
ACAD_PLOTSETTINGS
350
19
  3
ACAD_PLOTSTYLENAME
350
E
  0
DICTIONARY
  5
D
102
{ACAD_REACTORS
330
C
102
}
330
C
100
AcDbDictionary
281
     1
  0
DICTIONARY
  5
1A
102
{ACAD_REACTORS
330
C
102
}
330
C
100
AcDbDictionary
281
     1
  3
Layout1
350
1E
  3
Layout2
350
26
  3
Model
350
22
  0
DICTIONARY
  5
17
102
{ACAD_REACTORS
330
C
102
}
330
C
100
AcDbDictionary
281
     1
  3
Standard
350
18
  0
DICTIONARY
  5
19
102
{ACAD_REACTORS
330
C
102
}
330
C
100
AcDbDictionary
281
     1
  0
ACDBDICTIONARYWDFLT
  5
E
102
{ACAD_REACTORS
330
C
102
}
330
C
100
AcDbDictionary
281
     1
  3
Normal
350
F
100
AcDbDictionaryWithDefault
340
F
  0
LAYOUT
  5
1E
102
{ACAD_REACTORS
330
1A
102
}
330
1A
100
AcDbPlotSettings
  1

  2

  4

  6

 40
0.0
 41
0.0
 42
0.0
 43
0.0
 44
0.0
 45
0.0
 46
0.0
 47
0.0
 48
0.0
 49
0.0
140
0.0
141
0.0
142
1.0
143
1.0
 70
   688
 72
     0
 73
     0
 74
     5
  7

 75
    16
147
1.0
148
0.0
149
0.0
100
AcDbLayout
  1
Layout1
 70
     1
 71
     1
 10
0.0
 20
0.0
 11
420.0
 21
297.0
 12
0.0
 22
0.0
 32
0.0
 14
1.000000E+20
 24
1.000000E+20
 34
1.000000E+20
 15
-1.000000E+20
 25
-1.000000E+20
 35
-1.000000E+20
146
0.0
 13
0.0
 23
0.0
 33
0.0
 16
1.0
 26
0.0
 36
0.0
 17
0.0
 27
1.0
 37
0.0
 76
     0
330
1B
  0
LAYOUT
  5
26
102
{ACAD_REACTORS
330
1A
102
}
330
1A
100
AcDbPlotSettings
  1

  2

  4

  6

 40
0.0
 41
0.0
 42
0.0
 43
0.0
 44
0.0
 45
0.0
 46
0.0
 47
0.0
 48
0.0
 49
0.0
140
0.0
141
0.0
142
1.0
143
1.0
 70
   688
 72
     0
 73
     0
 74
     5
  7

 75
    16
147
1.0
148
0.0
149
0.0
100
AcDbLayout
  1
Layout2
 70
     1
 71
     2
 10
0.0
 20
0.0
 11
0.0
 21
0.0
 12
0.0
 22
0.0
 32
0.0
 14
0.0
 24
0.0
 34
0.0
 15
0.0
 25
0.0
 35
0.0
146
0.0
 13
0.0
 23
0.0
 33
0.0
 16
1.0
 26
0.0
 36
0.0
 17
0.0
 27
1.0
 37
0.0
 76
     0
330
23
  0
LAYOUT
  5
22
102
{ACAD_REACTORS
330
1A
102
}
330
1A
100
AcDbPlotSettings
  1

  2

  4

  6

 40
0.0
 41
0.0
 42
0.0
 43
0.0
 44
0.0
 45
0.0
 46
0.0
 47
0.0
 48
0.0
 49
0.0
140
0.0
141
0.0
142
1.0
143
1.0
 70
  1712
 72
     0
 73
     0
 74
     0
  7

 75
     0
147
1.0
148
0.0
149
0.0
100
AcDbLayout
  1
Model
 70
     1
 71
     0
 10
0.0
 20
0.0
 11
0.0
 21
0.0
 12
0.0
 22
0.0
 32
0.0
 14
0.0
 24
0.0
 34
0.0
 15
0.0
 25
0.0
 35
0.0
146
0.0
 13
0.0
 23
0.0
 33
0.0
 16
1.0
 26
0.0
 36
0.0
 17
0.0
 27
1.0
 37
0.0
 76
     0
330
1F
  0
MLINESTYLE
  5
18
102
{ACAD_REACTORS
330
17
102
}
330
17
100
AcDbMlineStyle
  2
Standard
 70
     0
  3

 62
   256
 51
90.0
 52
90.0
 71
     2
 49
1.0
 62
   256
  6
BYLAYER
 49
-1.0
 62
   256
  6
BYLAYER
  0
ACDBPLACEHOLDER
  5
F
102
{ACAD_REACTORS
330
E
102
}
330
E
  0
ENDSEC
  0
EOF
