  0
SECTION
  2
HEADER
  9
$ACADVER
  1
AC1015
  9
$ACADMAINTVER
 70
     6
  9
$DWGCODEPAGE
  3
ANSI_1252
  9
$INSBASE
 10
0.0
 20
0.0
 30
0.0
  9
$EXTMIN
 10
1.000000E+20
 20
1.000000E+20
 30
1.000000E+20
  9
$EXTMAX
 10
-1.000000E+20
 20
-1.000000E+20
 30
-1.000000E+20
  9
$LIMMIN
 10
0.0
 20
0.0
  9
$LIMMAX
 10
420.0
 20
297.0
  9
$ORTHOMODE
 70
     0
  9
$REGENMODE
 70
     1
  9
$FILLMODE
 70
     1
  9
$QTEXTMODE
 70
     0
  9
$MIRRTEXT
 70
     1
  9
$LTSCALE
 40
1.0
  9
$ATTMODE
 70
     1
  9
$TEXTSIZE
 40
2.5
  9
$TRACEWID
 40
1.0
  9
$TEXTSTYLE
  7
Standard
  9
$CLAYER
  8
0
  9
$CELTYPE
  6
ByLayer
  9
$CECOLOR
 62
   256
  9
$CELTSCALE
 40
1.0
  9
$DISPSILH
 70
     0
  9
$DIMSCALE
 40
1.0
  9
$DIMASZ
 40
2.5
  9
$DIMEXO
 40
0.625
  9
$DIMDLI
 40
3.75
  9
$DIMRND
 40
0.0
  9
$DIMDLE
 40
0.0
  9
$DIMEXE
 40
1.25
  9
$DIMTP
 40
0.0
  9
$DIMTM
 40
0.0
  9
$DIMTXT
 40
2.5
  9
$DIMCEN
 40
2.5
  9
$DIMTSZ
 40
0.0
  9
$DIMTOL
 70
     0
  9
$DIMLIM
 70
     0
  9
$DIMTIH
 70
     0
  9
$DIMTOH
 70
     0
  9
$DIMSE1
 70
     0
  9
$DIMSE2
 70
     0
  9
$DIMTAD
 70
     1
  9
$DIMZIN
 70
     8
  9
$DIMBLK
  1

  9
$DIMASO
 70
     1
  9
$DIMSHO
 70
     1
  9
$DIMPOST
  1

  9
$DIMAPOST
  1

  9
$DIMALT
 70
     0
  9
$DIMALTD
 70
     3
  9
$DIMALTF
 40
0.03937
  9
$DIMLFAC
 40
1.0
  9
$DIMTOFL
 70
     1
  9
$DIMTVP
 40
0.0
  9
$DIMTIX
 70
     0
  9
$DIMSOXD
 70
     0
  9
$DIMSAH
 70
     0
  9
$DIMBLK1
  1

  9
$DIMBLK2
  1

  9
$DIMSTYLE
  2
ISO-25
  9
$DIMCLRD
 70
     0
  9
$DIMCLRE
 70
     0
  9
$DIMCLRT
 70
     0
  9
$DIMTFAC
 40
1.0
  9
$DIMGAP
 40
0.625
  9
$DIMJUST
 70
     0
  9
$DIMSD1
 70
     0
  9
$DIMSD2
 70
     0
  9
$DIMTOLJ
 70
     0
  9
$DIMTZIN
 70
     8
  9
$DIMALTZ
 70
     0
  9
$DIMALTTZ
 70
     0
  9
$DIMUPT
 70
     0
  9
$DIMDEC
 70
     2
  9
$DIMTDEC
 70
     2
  9
$DIMALTU
 70
     2
  9
$DIMALTTD
 70
     3
  9
$DIMTXSTY
  7
Standard
  9
$DIMAUNIT
 70
     0
  9
$DIMADEC
 70
     0
  9
$DIMALTRND
 40
0.0
  9
$DIMAZIN
 70
     0
  9
$DIMDSEP
 70
    44
  9
$DIMATFIT
 70
     3
  9
$DIMFRAC
 70
     0
  9
$DIMLDRBLK
  1

  9
$DIMLUNIT
 70
     2
  9
$DIMLWD
 70
    -2
  9
$DIMLWE
 70
    -2
  9
$DIMTMOVE
 70
     0
  9
$LUNITS
 70
     2
  9
$LUPREC
 70
     4
  9
$SKETCHINC
 40
1.0
  9
$FILLETRAD
 40
10.0
  9
$AUNITS
 70
     0
  9
$AUPREC
 70
     0
  9
$MENU
  1
.
  9
$ELEVATION
 40
0.0
  9
$PELEVATION
 40
0.0
  9
$THICKNESS
 40
0.0
  9
$LIMCHECK
 70
     0
  9
$CHAMFERA
 40
10.0
  9
$CHAMFERB
 40
10.0
  9
$CHAMFERC
 40
20.0
  9
$CHAMFERD
 40
0.0
  9
$SKPOLY
 70
     0
  9
$TDCREATE
 40
2454510.676999572
  9
$TDUCREATE
 40
2454510.676999572
  9
$TDUPDATE
 40
2454510.676999583
  9
$TDUUPDATE
 40
2454510.676999583
  9
$TDINDWG
 40
0.0000000116
  9
$TDUSRTIMER
 40
0.0000000116
  9
$USRTIMER
 70
     1
  9
$ANGBASE
 50
0.0
  9
$ANGDIR
 70
     0
  9
$PDMODE
 70
     3
  9
$PDSIZE
 40
-0.7
  9
$PLINEWID
 40
0.0
  9
$SPLFRAME
 70
     0
  9
$SPLINETYPE
 70
     6
  9
$SPLINESEGS
 70
     8
  9
$HANDSEED
  5
2E
  9
$SURFTAB1
 70
     6
  9
$SURFTAB2
 70
     6
  9
$SURFTYPE
 70
     6
  9
$SURFU
 70
     6
  9
$SURFV
 70
     6
  9
$UCSBASE
  2

  9
$UCSNAME
  2

  9
$UCSORG
 10
0.0
 20
0.0
 30
0.0
  9
$UCSXDIR
 10
1.0
 20
0.0
 30
0.0
  9
$UCSYDIR
 10
0.0
 20
1.0
 30
0.0
  9
$UCSORTHOREF
  2

  9
$UCSORTHOVIEW
 70
     0
  9
$UCSORGTOP
 10
0.0
 20
0.0
 30
0.0
  9
$UCSORGBOTTOM
 10
0.0
 20
0.0
 30
0.0
  9
$UCSORGLEFT
 10
0.0
 20
0.0
 30
0.0
  9
$UCSORGRIGHT
 10
0.0
 20
0.0
 30
0.0
  9
$UCSORGFRONT
 10
0.0
 20
0.0
 30
0.0
  9
$UCSORGBACK
 10
0.0
 20
0.0
 30
0.0
  9
$PUCSBASE
  2

  9
$PUCSNAME
  2

  9
$PUCSORG
 10
0.0
 20
0.0
 30
0.0
  9
$PUCSXDIR
 10
1.0
 20
0.0
 30
0.0
  9
$PUCSYDIR
 10
0.0
 20
1.0
 30
0.0
  9
$PUCSORTHOREF
  2

  9
$PUCSORTHOVIEW
 70
     0
  9
$PUCSORGTOP
 10
0.0
 20
0.0
 30
0.0
  9
$PUCSORGBOTTOM
 10
0.0
 20
0.0
 30
0.0
  9
$PUCSORGLEFT
 10
0.0
 20
0.0
 30
0.0
  9
$PUCSORGRIGHT
 10
0.0
 20
0.0
 30
0.0
  9
$PUCSORGFRONT
 10
0.0
 20
0.0
 30
0.0
  9
$PUCSORGBACK
 10
0.0
 20
0.0
 30
0.0
  9
$USERI1
 70
     0
  9
$USERI2
 70
     0
  9
$USERI3
 70
     0
  9
$USERI4
 70
     0
  9
$USERI5
 70
     0
  9
$USERR1
 40
0.0
  9
$USERR2
 40
0.0
  9
$USERR3
 40
0.0
  9
$USERR4
 40
0.0
  9
$USERR5
 40
0.0
  9
$WORLDVIEW
 70
     1
  9
$SHADEDGE
 70
     3
  9
$SHADEDIF
 70
    70
  9
$TILEMODE
 70
     1
  9
$MAXACTVP
 70
    64
  9
$PINSBASE
 10
0.0
 20
0.0
 30
0.0
  9
$PLIMCHECK
 70
     0
  9
$PEXTMIN
 10
1.000000E+20
 20
1.000000E+20
 30
1.000000E+20
  9
$PEXTMAX
 10
-1.000000E+20
 20
-1.000000E+20
 30
-1.000000E+20
  9
$PLIMMIN
 10
0.0
 20
0.0
  9
$PLIMMAX
 10
420.0
 20
297.0
  9
$UNITMODE
 70
     0
  9
$VISRETAIN
 70
     1
  9
$PLINEGEN
 70
     0
  9
$PSLTSCALE
 70
     1
  9
$TREEDEPTH
 70
  3020
  9
$CMLSTYLE
  2
Standard
  9
$CMLJUST
 70
     1
  9
$CMLSCALE
 40
1.0
  9
$PROXYGRAPHICS
 70
     1
  9
$MEASUREMENT
 70
     1
  9
$CELWEIGHT
370
    -1
  9
$ENDCAPS
280
     0
  9
$JOINSTYLE
280
     0
  9
$LWDISPLAY
290
     0
  9
$INSUNITS
 70
     4
  9
$HYPERLINKBASE
  1

  9
$STYLESHEET
  1

  9
$XEDIT
290
     1
  9
$CEPSNTYPE
380
     0
  9
$PSTYLEMODE
290
     1
  9
$FINGERPRINTGUID
  2
{FAEB1C30-E019-11D5-929B-00C0DF256EC4}
  9
$VERSIONGUID
  2
{FAEB1C32-E019-11D5-929B-00C0DF256EC4}
  9
$EXTNAMES
290
     1
  9
$PSVPSCALE
 40
0.0
  9
$OLESTARTUP
290
     0
  0
ENDSEC
  0
SECTION
  2
CLASSES
  0
CLASS
  1
ACDBDICTIONARYWDFLT
  2
AcDbDictionaryWithDefault
  3
ObjectDBX Classes
 90
        0
280
     0
281
     0
  0
CLASS
  1
ACDBPLACEHOLDER
  2
AcDbPlaceHolder
  3
ObjectDBX Classes
 90
        0
280
     0
281
     0
  0
CLASS
  1
LAYOUT
  2
AcDbLayout
  3
ObjectDBX Classes
 90
        0
280
     0
281
     0
  0
ENDSEC
  0
SECTION
  2
TABLES
  0
TABLE
  2
VPORT
  5
8
330
0
100
AcDbSymbolTable
 70
     2
  0
VPORT
  5
29
330
8
100
AcDbSymbolTableRecord
100
AcDbViewportTableRecord
  2
*Active
 70
     0
 10
0.0
 20
0.0
 11
1.0
 21
1.0
 12
50.0
 22
50.0
 13
0.0
 23
0.0
 14
10.0
 24
10.0
 15
10.0
 25
10.0
 16
0.0
 26
0.0
 36
1.0
 17
0.0
 27
0.0
 37
0.0
 40
103.921569
 41
1.0
 42
50.0
 43
0.0
 44
0.0
 50
0.0
 51
0.0
 71
     0
 72
   100
 73
     1
 74
     3
 75
     0
 76
     0
 77
     0
 78
     0
281
     0
 65
     1
110
0.0
120
0.0
130
0.0
111
1.0
121
0.0
131
0.0
112
0.0
122
1.0
132
0.0
 79
     0
146
0.0
  0
ENDTAB
  0
TABLE
  2
LTYPE
  5
5
330
0
100
AcDbSymbolTable
 70
     1
  0
LTYPE
  5
14
330
5
100
AcDbSymbolTableRecord
100
AcDbLinetypeTableRecord
  2
ByBlock
 70
     0
  3

 72
    65
 73
     0
 40
0.0
  0
LTYPE
  5
15
330
5
100
AcDbSymbolTableRecord
100
AcDbLinetypeTableRecord
  2
ByLayer
 70
     0
  3

 72
    65
 73
     0
 40
0.0
  0
LTYPE
  5
16
330
5
100
AcDbSymbolTableRecord
100
AcDbLinetypeTableRecord
  2
Continuous
 70
     0
  3

 72
    65
 73
     0
 40
0.0
  0
ENDTAB
  0
TABLE
  2
LAYER
  5
2
330
0
100
AcDbSymbolTable
 70
     1
  0
LAYER
  5
10
330
2
100
AcDbSymbolTableRecord
100
AcDbLayerTableRecord
  2
0
 70
     0
 62
     7
  6
Continuous
370
    -3
390
F
  0
ENDTAB
  0
TABLE
  2
STYLE
  5
3
330
0
100
AcDbSymbolTable
 70
     1
  0
STYLE
  5
11
330
3
100
AcDbSymbolTableRecord
100
AcDbTextStyleTableRecord
  2
Standard
 70
     0
 40
1.0
 41
1.0
 50
0.0
 71
     0
 42
2.5
  3
RomanS
  4

  0
ENDTAB
  0
TABLE
  2
VIEW
  5
6
330
0
100
AcDbSymbolTable
 70
     0
  0
ENDTAB
  0
TABLE
  2
UCS
  5
7
330
0
100
AcDbSymbolTable
 70
     0
  0
ENDTAB
  0
TABLE
  2
APPID
  5
9
330
0
100
AcDbSymbolTable
 70
     1
  0
APPID
  5
12
330
9
100
AcDbSymbolTableRecord
100
AcDbRegAppTableRecord
  2
ACAD
 70
     0
  0
ENDTAB
  0
TABLE
  2
DIMSTYLE
  5
A
330
0
100
AcDbSymbolTable
 70
     1
100
AcDbDimStyleTable
  0
DIMSTYLE
105
27
330
A
100
AcDbSymbolTableRecord
100
AcDbDimStyleTableRecord
  2
ISO-25
 70
     0
 41
2.5
 42
0.625
 44
1.25
 73
     0
 74
     0
 77
     1
 78
     8
 79
     2
140
2.5
141
2.5
146
0.0
147
0.625
271
     2
272
     0
273
     0
274
     0
278
    44
283
     0
289
     0
340
11
  0
ENDTAB
  0
TABLE
  2
BLOCK_RECORD
  5
1
330
0
100
AcDbSymbolTable
 70
     1
  0
BLOCK_RECORD
  5
1F
330
1
100
AcDbSymbolTableRecord
100
AcDbBlockTableRecord
  2
*Model_Space
340
22
  0
BLOCK_RECORD
  5
1B
330
1
100
AcDbSymbolTableRecord
100
AcDbBlockTableRecord
  2
*Paper_Space
340
1E
  0
BLOCK_RECORD
  5
23
330
1
100
AcDbSymbolTableRecord
100
AcDbBlockTableRecord
  2
*Paper_Space0
340
26
  0
ENDTAB
  0
ENDSEC
  0
SECTION
  2
BLOCKS
  0
BLOCK
  5
20
330
1F
100
AcDbEntity
  8
0
100
AcDbBlockBegin
  2
*Model_Space
 70
     0
 71
     0
 10
0.0
 20
0.0
 30
0.0
  3
*Model_Space
  1

  0
ENDBLK
  5
21
330
1F
100
AcDbEntity
  8
0
100
AcDbBlockEnd
  0
BLOCK
  5
1C
330
1B
100
AcDbEntity
 67
     1
  8
0
100
AcDbBlockBegin
  2
*Paper_Space
 70
     0
 71
     0
 10
0.0
 20
0.0
 30
0.0
  3
*Paper_Space
  1

  0
ENDBLK
  5
1D
330
1B
100
AcDbEntity
 67
     1
  8
0
100
AcDbBlockEnd
  0
BLOCK
  5
24
330
23
100
AcDbEntity
  8
0
100
AcDbBlockBegin
  2
*Paper_Space0
 70
     0
 71
     0
 10
0.0
 20
0.0
 30
0.0
  3
*Paper_Space0
  1

  0
ENDBLK
  5
25
330
23
100
AcDbEntity
  8
0
100
AcDbBlockEnd
  0
ENDSEC
  0
SECTION
  2
ENTITIES
  0
LWPOLYLINE
  5
2A
330
1F
100
AcDbEntity
  8
0
100
AcDbPolyline
 90
       58
 70
   128
 43
0.0
 10
-1.914705
 20
-0.243498
 42
0.414214
 10
-1.779649
 20
-0.110287
 10
-1.779649
 20
0.102699
 42
0.414214
 10
-1.913183
 20
0.235391
 10
-2.088422
 20
0.213794
 10
-2.19656
 20
0.197165
 10
-2.298461
 20
0.17924
 10
-2.393534
 20
0.160384
 10
-2.481205
 20
0.141042
 10
-2.561078
 20
0.121465
 10
-2.633619
 20
0.101674
 10
-2.699669
 20
0.081706
 10
-2.760289
 20
0.0615
 10
-2.810378
 20
0.04331
 10
-2.81959
 20
0.039563
 10
-2.828435
 20
0.03515
 10
-2.836882
 20
0.030101
 10
-2.844899
 20
0.024449
 10
-2.852456
 20
0.018224
 10
-2.85952
 20
0.011459
 10
-2.86606
 20
0.004184
 10
-2.872045
 20
-0.003569
 10
-2.877444
 20
-0.011769
 10
-2.882225
 20
-0.020385
 10
-2.886356
 20
-0.029384
 10
-2.889807
 20
-0.038736
 10
-2.892545
 20
-0.04841
 10
-2.89454
 20
-0.058373
 10
-2.89576
 20
-0.068595
 10
-2.896174
 20
-0.079043
 10
-2.896022
 20
-0.085384
 10
-2.895571
 20
-0.091647
 10
-2.893799
 20
-0.103909
 10
-2.890914
 20
-0.115774
 10
-2.886972
 20
-0.127186
 10
-2.882028
 20
-0.13809
 10
-2.876137
 20
-0.14843
 10
-2.869356
 20
-0.158151
 10
-2.861739
 20
-0.167196
 10
-2.853342
 20
-0.175511
 10
-2.844221
 20
-0.18304
 10
-2.834431
 20
-0.189728
 10
-2.824029
 20
-0.195518
 10
-2.813068
 20
-0.200355
 10
-2.801606
 20
-0.204184
 10
-2.789697
 20
-0.206949
 10
-2.777397
 20
-0.208595
 10
-2.76886
 20
-0.209076
 10
-2.747081
 20
-0.210947
 10
-2.672809
 20
-0.2158
 10
-2.517865
 20
-0.22311
 10
-2.418287
 20
-0.227155
 10
-2.384278
 20
-0.227664
 10
-2.350486
 20
-0.229074
 10
-2.299334
 20
-0.231755
 10
-2.176553
 20
-0.236104
 10
-2.043071
 20
-0.240204
 10
-1.914705
 20
-0.243498
  0
LWPOLYLINE
  5
2B
330
1F
100
AcDbEntity
  8
0
100
AcDbPolyline
 90
       13
 70
   128
 43
0.0
 10
-1.395202
 20
0.264068
 42
0.414214
 10
-1.529649
 20
0.133506
 10
-1.529649
 20
-0.122863
 42
0.414214
 10
-1.39858
 20
-0.252889
 10
-1.272834
 20
-0.254793
 10
-1.107959
 20
-0.257151
 10
-0.894191
 20
-0.259999
 42
0.414214
 10
-0.759649
 20
-0.130803
 10
-0.759649
 20
0.1286
 42
0.414214
 10
-0.89253
 20
0.257601
 10
-1.078558
 20
0.263987
 10
-1.214619
 20
0.265613
 10
-1.395202
 20
0.264068
  0
LWPOLYLINE
  5
2C
330
1F
100
AcDbEntity
  8
0
100
AcDbPolyline
 90
       25
 70
   128
 43
0.0
 10
-0.375378
 20
0.22107
 42
0.414214
 10
-0.509649
 20
0.090853
 10
-0.509649
 20
-0.134661
 42
0.414214
 10
-0.374791
 20
-0.264677
 10
-0.28452
 20
-0.265336
 10
-0.123081
 20
-0.265626
 10
0.037136
 20
-0.265226
 10
0.196356
 20
-0.264055
 10
0.354817
 20
-0.262072
 10
0.512582
 20
-0.259249
 10
0.669638
 20
-0.255573
 10
0.825863
 20
-0.251007
 10
0.981089
 20
-0.245495
 10
1.012338
 20
-0.244103
 42
0.414214
 10
1.142955
 20
-0.114006
 42
0.351533
 10
1.040249
 20
0.013088
 10
1.024085
 20
0.015789
 10
0.885304
 20
0.038632
 10
0.693435
 20
0.069562
 10
0.501412
 20
0.099867
 10
0.309233
 20
0.129549
 10
0.1169
 20
0.158604
 10
-0.07845
 20
0.187458
 10
-0.210477
 20
0.203222
 10
-0.375378
 20
0.22107
  0
LWPOLYLINE
  5
2D
330
1F
100
AcDbEntity
  8
0
100
AcDbPolyline
 90
      187
 70
   128
 43
0.0
 10
-0.039505
 20
0.4345
 10
-0.182441
 20
0.45165
 10
-0.335677
 20
0.467942
 10
-0.487191
 20
0.481942
 10
-0.636927
 20
0.493609
 10
-0.784677
 20
0.502872
 10
-0.930205
 20
0.509664
 10
-1.07333
 20
0.513941
 10
-1.213955
 20
0.515622
 10
-1.352135
 20
0.514706
 10
-1.487955
 20
0.511163
 10
-1.621427
 20
0.504969
 10
-1.752232
 20
0.496192
 10
-1.875385
 20
0.491227
 10
-2.004816
 20
0.476991
 10
-2.123774
 20
0.461296
 10
-2.237218
 20
0.443852
 10
-2.344441
 20
0.424991
 10
-2.444788
 20
0.405088
 10
-2.537899
 20
0.384546
 10
-2.623746
 20
0.363505
 10
-2.702705
 20
0.341963
 10
-2.775385
 20
0.319991
 10
-2.842427
 20
0.297643
 10
-2.904427
 20
0.275171
 10
-2.96176
 20
0.253143
 10
-3.014566
 20
0.232018
 10
-3.062996
 20
0.21188
 10
-3.107343
 20
0.192449
 10
-3.148093
 20
0.173421
 10
-3.185691
 20
0.154602
 10
-3.220593
 20
0.13588
 10
-3.253177
 20
0.117296
 10
-3.283663
 20
0.098921
 10
-3.312246
 20
0.08081
 10
-3.339066
 20
0.063032
 10
-3.364232
 20
0.045616
 10
-3.387538
 20
0.028255
 10
-3.40883
 20
0.010642
 10
-3.42801
 20
-0.007537
 10
-3.445107
 20
-0.026495
 10
-3.46026
 20
-0.046259
 10
-3.473732
 20
-0.066787
 10
-3.485649
 20
-0.088065
 10
-3.496191
 20
-0.110051
 10
-3.50958
 20
-0.142857
 10
-3.512589
 20
-0.151699
 10
-3.514612
 20
-0.160892
 10
-3.515715
 20
-0.170328
 10
-3.51596
 20
-0.179901
 10
-3.515412
 20
-0.189507
 10
-3.514135
 20
-0.199038
 10
-3.512192
 20
-0.208389
 10
-3.509649
 20
-0.217454
 10
-3.505507
 20
-0.229754
 10
-3.500968
 20
-0.241857
 10
-3.49213
 20
-0.2599
 10
-3.482343
 20
-0.277204
 10
-3.479802
 20
-0.281218
 10
-3.478816
 20
-0.282759
 10
-3.478135
 20
-0.283801
 10
-3.476732
 20
-0.285843
 10
-3.475607
 20
-0.287412
 10
-3.473121
 20
-0.290773
 10
-3.470691
 20
-0.293926
 10
-3.468232
 20
-0.297009
 10
-3.465885
 20
-0.299843
 10
-3.462996
 20
-0.30319
 10
-3.460093
 20
-0.306329
 10
-3.456468
 20
-0.310079
 10
-3.452816
 20
-0.313662
 10
-3.449066
 20
-0.317134
 10
-3.446232
 20
-0.319565
 10
-3.438427
 20
-0.325815
 10
-3.433024
 20
-0.329745
 10
-3.432843
 20
-0.32987
 10
-3.423758
 20
-0.335671
 10
-3.414455
 20
-0.34094
 10
-3.404312
 20
-0.345914
 10
-3.394024
 20
-0.35044
 10
-3.371677
 20
-0.358829
 10
-3.347621
 20
-0.366565
 10
-3.322205
 20
-0.374259
 10
-3.295482
 20
-0.382009
 10
-3.26733
 20
-0.389745
 10
-3.237663
 20
-0.397357
 10
-3.206274
 20
-0.404745
 10
-3.172913
 20
-0.411801
 10
-3.137177
 20
-0.418398
 10
-3.098593
 20
-0.424537
 10
-3.056649
 20
-0.430357
 10
-3.010788
 20
-0.436023
 10
-2.960482
 20
-0.441801
 10
-2.905288
 20
-0.447718
 10
-2.844663
 20
-0.453565
 10
-2.805246
 20
-0.45713
 10
-2.765802
 20
-0.460257
 10
-2.726335
 20
-0.463001
 10
-2.68685
 20
-0.465416
 10
-2.607846
 20
-0.469475
 10
-2.52883
 20
-0.47287
 10
-2.425232
 20
-0.477079
 10
-2.391362
 20
-0.477586
 10
-2.362241
 20
-0.478801
 10
-2.335883
 20
-0.480266
 10
-2.310302
 20
-0.481523
 10
-2.184816
 20
-0.485968
 10
-2.05008
 20
-0.490107
 10
-1.875328
 20
-0.49454
 10
-1.756257
 20
-0.49703
 10
-1.600132
 20
-0.499807
 10
-1.439757
 20
-0.502321
 10
-1.276493
 20
-0.504767
 10
-1.11141
 20
-0.507127
 10
-0.945424
 20
-0.509335
 10
-0.779341
 20
-0.511335
 10
-0.613729
 20
-0.513071
 10
-0.449035
 20
-0.514446
 10
-0.285424
 20
-0.515335
 10
-0.122993
 20
-0.515627
 10
0.038368
 20
-0.515224
 10
0.19884
 20
-0.514044
 10
0.358618
 20
-0.512044
 10
0.517743
 20
-0.509196
 10
0.676215
 20
-0.505489
 10
0.833951
 20
-0.500877
 10
0.990798
 20
-0.495307
 10
1.076646
 20
-0.491682
 10
1.147045
 20
-0.488607
 10
1.301698
 20
-0.48094
 10
1.454907
 20
-0.472148
 10
1.606559
 20
-0.46219
 10
1.756587
 20
-0.450995
 10
1.905129
 20
-0.438468
 10
2.05242
 20
-0.424523
 10
2.198851
 20
-0.409065
 10
2.344698
 20
-0.392079
 10
2.489879
 20
-0.373607
 10
2.633893
 20
-0.353787
 10
2.775893
 20
-0.332773
 10
2.914768
 20
-0.310857
 10
3.049295
 20
-0.288176
 10
3.178323
 20
-0.26494
 10
3.300976
 20
-0.241398
 10
3.416837
 20
-0.21787
 10
3.490351
 20
-0.202273
 10
3.492887
 20
-0.201296
 10
3.495089
 20
-0.199582
 10
3.496955
 20
-0.197239
 10
3.498485
 20
-0.194373
 10
3.499677
 20
-0.191091
 10
3.500533
 20
-0.1875
 10
3.501049
 20
-0.183705
 10
3.501227
 20
-0.179815
 10
3.501065
 20
-0.175936
 10
3.500562
 20
-0.172175
 10
3.499717
 20
-0.168637
 10
3.498531
 20
-0.165431
 10
3.497002
 20
-0.162663
 10
3.49513
 20
-0.160439
 10
3.492913
 20
-0.158866
 10
3.490351
 20
-0.158051
 10
3.410268
 20
-0.146329
 10
3.281323
 20
-0.127037
 10
3.280546
 20
-0.126752
 10
3.279769
 20
-0.126467
 10
3.142032
 20
-0.105662
 10
3.109807
 20
-0.100578
 10
2.814908
 20
-0.051074
 10
2.667685
 20
-0.026162
 10
2.520629
 20
-0.00062
 10
2.424108
 20
0.016726
 10
2.327587
 20
0.03449
 10
2.13469
 20
0.070398
 10
1.976783
 20
0.100168
 10
1.818828
 20
0.130353
 10
1.660789
 20
0.160067
 10
1.581727
 20
0.174471
 10
1.502629
 20
0.188427
 10
1.310406
 20
0.221372
 10
1.11803
 20
0.25369
 10
0.9255
 20
0.28538
 10
0.732816
 20
0.316442
 10
0.539977
 20
0.346876
 10
0.346984
 20
0.376682
 10
0.153836
 20
0.405861
 10
-0.039505
 20
0.4345
  0
ENDSEC
  0
SECTION
  2
OBJECTS
  0
DICTIONARY
  5
C
330
0
100
AcDbDictionary
281
     1
  3
ACAD_GROUP
350
D
  3
ACAD_LAYOUT
350
1A
  3
ACAD_MLINESTYLE
350
17
  3
ACAD_PLOTSETTINGS
350
19
  3
ACAD_PLOTSTYLENAME
350
E
  0
DICTIONARY
  5
D
102
{ACAD_REACTORS
330
C
102
}
330
C
100
AcDbDictionary
281
     1
  0
DICTIONARY
  5
1A
102
{ACAD_REACTORS
330
C
102
}
330
C
100
AcDbDictionary
281
     1
  3
Layout1
350
1E
  3
Layout2
350
26
  3
Model
350
22
  0
DICTIONARY
  5
17
102
{ACAD_REACTORS
330
C
102
}
330
C
100
AcDbDictionary
281
     1
  3
Standard
350
18
  0
DICTIONARY
  5
19
102
{ACAD_REACTORS
330
C
102
}
330
C
100
AcDbDictionary
281
     1
  0
ACDBDICTIONARYWDFLT
  5
E
102
{ACAD_REACTORS
330
C
102
}
330
C
100
AcDbDictionary
281
     1
  3
Normal
350
F
100
AcDbDictionaryWithDefault
340
F
  0
LAYOUT
  5
1E
102
{ACAD_REACTORS
330
1A
102
}
330
1A
100
AcDbPlotSettings
  1

  2

  4

  6

 40
0.0
 41
0.0
 42
0.0
 43
0.0
 44
0.0
 45
0.0
 46
0.0
 47
0.0
 48
0.0
 49
0.0
140
0.0
141
0.0
142
1.0
143
1.0
 70
   688
 72
     0
 73
     0
 74
     5
  7

 75
    16
147
1.0
148
0.0
149
0.0
100
AcDbLayout
  1
Layout1
 70
     1
 71
     1
 10
0.0
 20
0.0
 11
420.0
 21
297.0
 12
0.0
 22
0.0
 32
0.0
 14
1.000000E+20
 24
1.000000E+20
 34
1.000000E+20
 15
-1.000000E+20
 25
-1.000000E+20
 35
-1.000000E+20
146
0.0
 13
0.0
 23
0.0
 33
0.0
 16
1.0
 26
0.0
 36
0.0
 17
0.0
 27
1.0
 37
0.0
 76
     0
330
1B
  0
LAYOUT
  5
26
102
{ACAD_REACTORS
330
1A
102
}
330
1A
100
AcDbPlotSettings
  1

  2

  4

  6

 40
0.0
 41
0.0
 42
0.0
 43
0.0
 44
0.0
 45
0.0
 46
0.0
 47
0.0
 48
0.0
 49
0.0
140
0.0
141
0.0
142
1.0
143
1.0
 70
   688
 72
     0
 73
     0
 74
     5
  7

 75
    16
147
1.0
148
0.0
149
0.0
100
AcDbLayout
  1
Layout2
 70
     1
 71
     2
 10
0.0
 20
0.0
 11
0.0
 21
0.0
 12
0.0
 22
0.0
 32
0.0
 14
0.0
 24
0.0
 34
0.0
 15
0.0
 25
0.0
 35
0.0
146
0.0
 13
0.0
 23
0.0
 33
0.0
 16
1.0
 26
0.0
 36
0.0
 17
0.0
 27
1.0
 37
0.0
 76
     0
330
23
  0
LAYOUT
  5
22
102
{ACAD_REACTORS
330
1A
102
}
330
1A
100
AcDbPlotSettings
  1

  2

  4

  6

 40
0.0
 41
0.0
 42
0.0
 43
0.0
 44
0.0
 45
0.0
 46
0.0
 47
0.0
 48
0.0
 49
0.0
140
0.0
141
0.0
142
1.0
143
1.0
 70
  1712
 72
     0
 73
     0
 74
     0
  7

 75
     0
147
1.0
148
0.0
149
0.0
100
AcDbLayout
  1
Model
 70
     1
 71
     0
 10
0.0
 20
0.0
 11
0.0
 21
0.0
 12
0.0
 22
0.0
 32
0.0
 14
0.0
 24
0.0
 34
0.0
 15
0.0
 25
0.0
 35
0.0
146
0.0
 13
0.0
 23
0.0
 33
0.0
 16
1.0
 26
0.0
 36
0.0
 17
0.0
 27
1.0
 37
0.0
 76
     0
330
1F
  0
MLINESTYLE
  5
18
102
{ACAD_REACTORS
330
17
102
}
330
17
100
AcDbMlineStyle
  2
Standard
 70
     0
  3

 62
   256
 51
90.0
 52
90.0
 71
     2
 49
1.0
 62
   256
  6
BYLAYER
 49
-1.0
 62
   256
  6
BYLAYER
  0
ACDBPLACEHOLDER
  5
F
102
{ACAD_REACTORS
330
E
102
}
330
E
  0
ENDSEC
  0
EOF
